/* XPM */
static char *a51cab93fb204050f0cf5730cf9bb5f6Pt2UqWnH5LBpJb1T[] = {
/* columns rows colors chars-per-pixel */
"70 70 186 2 ",
"   c None",
".  c #020000",
"X  c #0B0401",
"o  c #100602",
"O  c #150903",
"+  c #1C0D04",
"@  c #021317",
"#  c #001219",
"$  c #151616",
"%  c #221206",
"&  c #281607",
"*  c #271508",
"=  c #291608",
"-  c #2D1909",
";  c #341E0D",
":  c #391F0B",
">  c #3C2006",
",  c #37200E",
"<  c #3A210E",
"1  c #2E231D",
"2  c #372113",
"3  c #3D2410",
"4  c #32241C",
"5  c #3B271A",
"6  c #3C291D",
"7  c #071E23",
"8  c #0C1D21",
"9  c #141E21",
"0  c #0B242A",
"q  c #1B2224",
"w  c #16252A",
"e  c #1C2629",
"r  c #1F282B",
"t  c #252423",
"y  c #2C2523",
"u  c #2D2826",
"i  c #222729",
"p  c #24292B",
"a  c #322621",
"s  c #352A25",
"d  c #3B2B23",
"f  c #41240D",
"g  c #4D2C0E",
"h  c #422712",
"j  c #432712",
"k  c #432713",
"l  c #412611",
"z  c #442712",
"x  c #412612",
"c  c #432811",
"v  c #432812",
"b  c #442811",
"n  c #442812",
"m  c #452812",
"M  c #452912",
"N  c #442813",
"B  c #452813",
"V  c #452913",
"C  c #442912",
"Z  c #462912",
"A  c #472912",
"S  c #462913",
"D  c #472913",
"F  c #462A12",
"G  c #462A13",
"H  c #472A13",
"J  c #472B13",
"K  c #472914",
"L  c #472A14",
"P  c #452912",
"I  c #482A13",
"U  c #482B13",
"Y  c #492B13",
"T  c #482A14",
"R  c #482B14",
"E  c #492B14",
"W  c #482A15",
"Q  c #492A15",
"!  c #492B15",
"~  c #482B15",
"^  c #4A2B14",
"/  c #4A2B15",
"(  c #492C14",
")  c #4A2C14",
"_  c #4B2C14",
"`  c #4B2D14",
"'  c #4A2C15",
"]  c #4B2C15",
"[  c #4B2D15",
"{  c #4B2C16",
"}  c #4C2C14",
"|  c #4C2D14",
" . c #4D2D14",
".. c #4C2D15",
"X. c #4D2D15",
"o. c #4C2E14",
"O. c #4D2F14",
"+. c #4C2E15",
"@. c #4D2E15",
"#. c #4D2F15",
"$. c #4E2E15",
"%. c #4F2E15",
"&. c #4E2F15",
"*. c #4F2F15",
"=. c #4D2D16",
"-. c #4D2E16",
";. c #4C2F16",
":. c #4D2F16",
">. c #4E2E16",
",. c #4E2F16",
"<. c #4F2F16",
"1. c #4F2E17",
"2. c #4E2F17",
"3. c #4F2F17",
"4. c #4F2E16",
"5. c #4B2D15",
"6. c #472D1D",
"7. c #452C1C",
"8. c #492E1A",
"9. c #502F16",
"0. c #512F16",
"q. c #502F17",
"w. c #502F16",
"e. c #4E3015",
"r. c #4F3015",
"t. c #4E3016",
"y. c #4E3015",
"u. c #503016",
"i. c #503017",
"p. c #513017",
"a. c #513117",
"s. c #553117",
"d. c #543217",
"f. c #513018",
"g. c #523018",
"h. c #523118",
"j. c #533118",
"k. c #523019",
"l. c #523119",
"z. c #533119",
"x. c #533218",
"c. c #533219",
"v. c #543218",
"b. c #543219",
"n. c #553219",
"m. c #553319",
"M. c #563319",
"N. c #57331A",
"B. c #56331A",
"V. c #563419",
"C. c #57341A",
"Z. c #533118",
"A. c #58341A",
"S. c #58351A",
"D. c #58351B",
"F. c #59351B",
"G. c #5A351B",
"H. c #59361B",
"J. c #5A361B",
"K. c #5B361B",
"L. c #5A351C",
"P. c #5B361C",
"I. c #5B371C",
"U. c #5A361C",
"Y. c #5C371C",
"T. c #5D371D",
"R. c #5A361B",
"E. c #5D381C",
"W. c #5D381D",
"Q. c #5E381C",
"!. c #5E381D",
"~. c #5E391D",
"^. c #5F391D",
"/. c #5E381D",
"(. c #633917",
"). c #60391D",
"_. c #60391E",
"`. c #603A1E",
"'. c #613A1E",
"]. c #623B1F",
"[. c #633B1F",
"{. c #633C1F",
"}. c #613A1D",
"|. c #442E22",
" X c #4C3122",
".X c #533522",
/* pixels */
"                                                                                                                                            ",
"                                                                                                                                            ",
"                                                                                                                                            ",
"                                                                                                                                            ",
"                                                      .                             .                                                       ",
"                                                    o X X X X o o o o o o o o X X X X X                                                     ",
"                                                    = ; ; - ; < < < < < < < < ; - ; ; =                                                     ",
"                                            . . . . ; p._ &.d.[.{.{.{.{.{.{.{.D.&.} 0.; . . . .                                             ",
"                                          % - ; ; : / x./ C / 2.M.M.k.k.k.M.k./ k K x.K < ; ; - %                                           ",
"                                    . . . + < &.D.T.T.T./ , ; 3 3 , 3 , , ; , ; 3 / !.!.K.D.} < + . . .                                     ",
"                                  % & & & ; _ M.C.D.D.M./ 3 : 3 3 : , 3 3 3 3 3 3 / M.U.D.C.M./ ; & & & %                                   ",
"                                O ; z Y l ] D.D.z < 3 3 v K Y C k D C =.&.&./ / / k 3 3 3 z D.D._ z C C ; O                                 ",
"                              . O : } p.] k.T.A.3 ; ; ; l / / Y / / / &.0.0.&.&.] l ; ; ; 3 D.T.p.&.0.&., O .                               ",
"                              . O ; Y p.D.M.z 3 K Y C C Y Y _ &.&.&.=.k.0.&.k.&.&.&.&.] / K l k M.C.x.C ; O .                               ",
"                              . X ; v M.[.M.3 ; z / Y Y Y Y / 0.&.&.k.&.&.&.2.2.&.&.k.&.] C ; 3 M.[.M.v - o .                               ",
"                          . . ; l &.D.x.z z z z / Y =.&.=.=.&.0.&.&.&.&.2.0.0.&.2.0.&.&.e.&.C C z z x.C.] f ; X .                           ",
"                          . . < 0.M.T.k.; 3 K ] ] _ } &.&.&.&.&.k.&.&.=.k.&.k.&.2.&.&.0.2.&.&.K 3 ; M.T.x.0.< . .                           ",
"                          . . < &.M.T.k.: 3 C ] Y } _ &.&.&.&.&.&.&.0.k.=.&.&.&.0.0.2.2.&.&.&.C 3 ; x.T.M.e., . .                           ",
"                          . . < &.x.!.x.< 3 v Y / } _ =.&.&.=.0.&.&.&.&.&.0.&.0.&.2.0.&.2.&.&.K 3 3 x.T.p.e.< . .                           ",
"                          . . < &.x.!.x., < v ] Y Y &.&.&.=.} 0.=.k.&.k.&.&.=.k.&.0.2.&.0.2.&.C 3 , k.T.M.&.< . .                           ",
"                          . . < &.x.T.x.; 3 K &./ ] &.&.&.&.&.&.&.0.&.k.&.&.k.&.2.2.0.&.&.&.&.K 3 ; k.T.x.&.< . .                           ",
"                          . . ; ] x.!.M.l l C K / &.&.=./ ] =.&.=.&.&.&.0.&.&.&.0.&.0.2.&.] / K l 3 M.T.p.] , . .                           ",
"                          . X * 3 2.T.!.U.x.3 ; &.0.&./ Y } &.&.0.0.0.&.k.=.k.&.&.0.k.&.] Y ; 3 M.U.!.T.e.3 = X .                           ",
"                          . . * 3 ] D.!.U.M.l 3 / &./ Y / Y ] &.&.=.=.2.&.&.&.&.=.&.&.=./ C 3 k M.T.!.D.] 3 * . .                           ",
"                          . . * 3 K &.C.T.D.K.M.l 3 , 3 k / ] C / / / &.k.k.k.&.] C < < 3 3 x.U.D.!.C.e.C 3 * . .                           ",
"                          . . - 3 3 C i.D.T.[.D.l : ; 2 l / K K z z K &.&.&.&./ / l 3 ; , l U.[.I.U.p.K l 3 = . .                           ",
"                          . . : Y v 3 C p.p.2.k.k.x.M.x.K 3 3 3 3 3 3 l l 3 l 3 l / x.M.x.x.k.&.] C k 3 v _ < . .                           ",
"                          . . f e.l ; < Y / C &.T.[.[.!./ , - ; ; , ; ; ; ; ; - : &..X{._.T.&.l 3 ; - ; l e.f . .                           ",
"                          . . < &.&.M.=.l l l k K ] i.x.i.2.&.2.2.2.&.k.&.2.2.k.i.i.x.e./ K C l 3 < ] x.&.&., . .                           ",
"                          . . , &.x..Xx., : , ; - ; l e.D.!.[.[._.[._._.[.!.!.[.!.C.&.3 ; ; ; ; , , x.!.x.&.; . .                           ",
"                          . . < &.x.!.x., 3 3 k ] ] C 3 ] &.p.x.k.&.2.1.2.2.2.x.2.] 3 K / / k 3 3 , x.!.M.&.< . .                           ",
"                          . . < &.x.T.x., l k &.U.U.] ; < 2 ; ; , : , 3 < < ; ; , 3 ; / U.U.2.k 3 , x.W.d.&.< . .                           ",
"                          . . , 0.M..Xx.3 3 C x.U.W.] - < < 3 v 3 , ; ; , 3 k 3 < 3 - ] U.U.x.C 3 , x.T.x.&., . .                           ",
"                          . . < &.d.[.k.; 3 l 0.U.D.~ ; v _ x.!.k.k ; ; k x..Xx.] l ; / U.U.0.z 3 , x.T.M.e.< . .                           ",
"                          . . , &.x.T.x., 3 z &.U.D.~ ; v ] x.[.k.k ; ; l M.{.M.] l ; / U.K.0.C 3 , l..Xp.&., . .                           ",
"                          . X @ t 7.T.M., 3 C 0.D.D.K ; v ] m.!.x.k ; ; 3 0._.M.K l ; K D.D.&.C 3 : s.{.7.t @ X .                           ",
"                          . X # t 7.!.x., 3 k 0.^.D.Y ; l J p.!.M.l ; ; l x.T.x.C C ; / K.D.e.C 3 , M.T.|.t # X .                           ",
"                          . . ; W d d a : f C p.K.K.Y ; v _ m.!.x.l ; ; l x.!.x._ v ; / K.K.p.b l : a s d W ; . .                           ",
"                          . . f &.d p t < 3 K 2.U.U./ ; v J p.^.x.3 ; ; 3 x.!.x.Y l ; K D.K._ v l , t i d &.f . .                           ",
"                          . . < &.7. X|.y 4 4 5 |.|.3 ; c _ x.^.x.l ; ; l x.!.M.Y b ; 7.|.7.5 4 4 a |. X8.&.: . .                           ",
"                          . X ; &.M.(..Xp e 9 8 w e 1 > l Y x.[.x.3 ; ; 3 x.[.d._ l > 1 e w $ w e p .X(.d.&.; X .                           ",
"                          . . < &.x.U.l.y a 5 4 u s 1 5 5 5 7. X|.5 4 4 6 |. X7.5 5 4 a u u a 4 a y l.!.M.&.< . .                           ",
"                          . . < &.x.T.k.< f g 8.i w r p q 8 0 0 w i p p i w 0 7 8 w p i w u 2.g < < k.T.d.&.< . .                           ",
"                          . . < &.M.!.x., 3 C ] 6.d s y 1 4 5 d d a y y s d d 6 4 4 1 s d |.8.C 3 < x.!.d.&.< X .                           ",
"                          . . < &.d..Xl.2 3 C &.U.D.K ; v J i.!.k.k ; ; 3 l.T.p.J v ; K D.D.2.C 3 , k.T.x.&.< . .                           ",
"                          . . ; &.M.[.x., 3 C 0.T.K./ ; c _ m.[.0.l ; ; l M.[.d._ v ; _ K.U.0.C 3 3 x.T.x.&.; . .                           ",
"                          . X < &.d.!.x.3 3 z &.U.D.~ - v J x.!.x.k ; ; k x..XM.J v ; ~ U.U.0.z 3 , x.T.M.&.< . .                           ",
"                          . . ; &.x.T.x.; 3 l k.U.U.] ; v ] x.^.x.3 ; ; 3 x.[.d._ v - ] U.D.&.C 3 , x.T.x.&.< . .                           ",
"                          . . $ a 8.!.d.: 3 C 0.D.D./ ; v ~ x.!.x.k ; ; 3 x.!.x./ l ; K K.D.0.C 3 , k.T.8.a $ . .                           ",
"                          . X # q 7.[.d., 3 z &.D.K./ ; v J x.!.i.3 , ; l x.[.x./ l ; / D.D.0.z 3 2 d.[.7.q # X .                           ",
"                          . . ; W d d 6 , 3 k 0.K.D./ ; v ] m.!.x.3 ; ; 3 x.!.x.Y l ; Y K.K.0.z 3 : d d 6 7., . .                           ",
"                          . . f e.s r t : f Y 0.K.T./ - 3 ~ m.!.l.3 ; ; k x.T.x./ z ; } K.K.0.z f : t e 6 e.< . .                           ",
"                          . . < &.8.|.d 1 4 5 d  X|.3 ; C ] m.!.l.3 ; ; l x.T.x.Y C : 3 8.|.6 5 4 a d  X8.&.< . .                           ",
"                          . . , e.d.(..Xp e q $ e i 4 < v _ m.!.B.k ; , k x.[.x.Y l < 4 i e 9 9 i p  X(.M.&., X .                           ",
"                          . . < &.M.[.l.y y 1 1 u u y 2 5 6 8.c. X3 4 4 5 8..X8.6 3 2 y u p 1 1 y y l.[.p.&., . .                           ",
"                          . . < e.p.!.d.< < g 8.y i i p q $ w w e p i i p r w 9 9 q p p i u ] g < : x.!.M.&., . .                           ",
"                          . . < e.M.!.x.; 3 Y ] s s y u t 1 a s s u u t u s s y 1 1 u u s s 8.Y 3 , x.!.d.e.< X .                           ",
"                          . . < e.d.!.x.2 3 C &.U.D.K ; l ~ x.!.x.3 ; ; k k..Xk.] l - W U.U.&.C 3 , x.T.d.} < . .                           ",
"                          . . < &.p.T.x., 3 C 0.T.D.Y ; C Y p.[.x.l ; ; f p.{.s._ C ; / U.U.0.z 3 , x.T.x.e., . .                           ",
"                          . . < p.M.T.k.2 < C 0.T.D./ ; l Y x.!.i.3 , , l k.[.M.C l ; K U.U.&.C 3 , x.!.C.p.< X .                           ",
"                          . X < } d.T.k.3 3 C &.D.K./ ; v ] x.!.x.k ; ; l x.!.x./ l ; K U.U.0.z 3 2 k..Xd.} < . .                           ",
"                              + ; Y T.M.; 3 z &.K.D./ ; l Y x.!.x.3 ; , l x.!.x./ z ; / D.U.&.C 3 , M.[.Y ; +                               ",
"                              . + D {.D.; 3 z 0.D.D./ ; l _ D.{.x.3 ; ; k x.!.x./ l ; / D.K.&.z 3 , M.[.l + .                               ",
"                                  ; < 3 ; 3 C 0.D.D.K ; v _ d..Xc.3 ; ; 3 x.!.x./ l ; / D.K.&.K 3 : < < ;                                   ",
"                                  o X & 3 v ] m.D.D./ ; l / M.!.x.3 ; ; 3 x.[.x./ C ; / A.T.d.=.l 3 & X o                                   ",
"                                      + = - - 3 D.K.K ; l C p.!.x.l ; ; 3 x.T.x.C l ; / U.A.3 - - = +                                       ",
"                                        . X . - D.T.&.; C &.C.[.M.k , , K M.[.M.&.C ; ] T.A.= . X .                                         ",
"                                        . . . = &.0.l = < 3 Y x.K , = = 2 K x.C 3 < = 3 &.&.= . . .                                         ",
"                                                . . . . . . . . . . . . . . . . . . . . . .                                                 ",
"                                                . . . . . . . . . . . . . . . . . . . . . .                                                 "
};
