/* XPM */
static char *_94ac958efb74adaac0ce32ef2419152PiV5rIJVH1ZpTT3o[] = {
/* columns rows colors chars-per-pixel */
"70 70 62 1 ",
"  c #483517",
". c #4B3619",
"X c #4F381B",
"o c #51391F",
"O c #553B24",
"+ c #5A3E25",
"@ c #5C3E2A",
"# c #5D4027",
"$ c #5F402B",
"% c #624327",
"& c #63432D",
"* c #69472F",
"= c #6B492F",
"- c #704B2F",
"; c #6A4730",
": c #6C4930",
"> c #6D4A31",
", c #6E4A32",
"< c #6F4A32",
"1 c #6F4B32",
"2 c #704C32",
"3 c #724C33",
"4 c #744E33",
"5 c #734E34",
"6 c #744F34",
"7 c #754E35",
"8 c #774F34",
"9 c #774F35",
"0 c #755031",
"q c #765034",
"w c #765035",
"e c #775135",
"r c #775036",
"t c #785134",
"y c #795036",
"u c #7A5136",
"i c #7C5237",
"p c #7D5337",
"a c #7B5437",
"s c #7E5537",
"d c #7C5338",
"f c #7D5538",
"g c #7E5538",
"h c #7F5638",
"j c #805538",
"k c #805539",
"l c #815738",
"z c #825739",
"x c #82573A",
"c c #83573A",
"v c #825839",
"b c #84593B",
"n c #86593B",
"m c #87593B",
"M c #865A3A",
"N c #875A3B",
"B c #865B3B",
"V c #865B3C",
"C c #875B3C",
"Z c #885B3B",
"A c #885B3C",
"S c #8B5D3E",
/* pixels */
"zzzzzzzzzzzz3*zzCzxzzzzzzzzzzd3*6zccccZNAZzzzzc2*yzpzzzzzzccc3&ydcczzz",
"NNNNNNNNNNCCy&yddzzCCCZANNNNAd3*yAAcApypdzzzNNd6;gzzCCNCAccAZy*4zcAANZ",
"64q66yy66666;@3y5&;36666y66662;%2366:;463&&*:62*@2:2y66666666;%;266464",
"*****&&****;&;6y3@&;;*;*&******&****&;pd3@@&;*;*&***;;&&**;;**&;:;*;**",
"4q663*&26666y6yy5556663;%;66666y66666pz45626y666y66662*&266666y6666y66",
"CANCz3*yzAAAANppdzCCAAz6;5dAZAZAACAAAz6*:zzCAAAAAANNAZ6;cccCAAcd6dzzZN",
"gsgdy:&3sgddggzzzzzgdz63*5dzzzzddzdgsy4*3gydggpggdgpgg2&ypyzzy:&$&*6pz",
"&&&%@$@@oX+$&&&$@&%&$&&@@@2zNNy*@&&%*&@@@%&&$&&&&&&&&&%@@&&$&@$yzzy;&+",
"5266551&++%:q666::;:1q56y<2*23=@:6y2&*5qq555q66666*&:666662464ykzy3335",
"ggNCCNNsppgvAzzCvy;:qvCCcmp62222zAZd;*gzCcCCzZNzzg2;pzCCZcNNNNNNz6:5gN",
"sgzggvvzzzzggdzzg6**5qgzjsdpy66dpzzy;*dgsgdggggjyd2*yydzzpgkjppp5:*3pp",
";:;=:;;;;:;::;3;;*&;=*;;2*=<232:;=*2*&;;:::;2;;:2;&&*;;:;22**2*=*&&*:2",
";=*;&%$=****;*;;;;:;*@&;=*;*****;;;*;:*$$*;;;;;;;;2*&@@@@&;;;*;;;==***",
"sgNAN3#gzzNNZzNNzCCgy*6zZzNZNzNNZZNzZcs;2gvANAvNAzZZgq5:&:gNZZzNzNNNNN",
"gsgAv3+szNNNzZNzxCCdq*6gzCNzNNAzzZZNzzy;2dcvNNzNzAzNACvy&:dNNzNNZNAvvN",
"*&*;;%@*;;;;;::**;*;&%@***;=;;;;*;**;*%@@&******;;:;;**&@&*;;;;=**=:;*",
":;::;;::;:::;;$;2;:::33:::;2;:*&*;2=2:<;2*:;;;2:;;&&*2;*2;2*;=;2::%&;:",
"gzgggzzgzdzdd6&:dzdzddyydggggg5*2yppdgdddcdzgzyszy**yddcjzpzdzpkp4&:yd",
"gzCCNNNvCCCxcd*;yAACz3226gNNCg5;2pZZAcCCZZzANz6yNz;*yccANNNNzNZZz3*6zN",
"22663q4q6665::&*:666<@%&#:3622*&22444yzCp46665&&46=&=666462666643:&;3y",
"&&%&$$&$%@%&+&&&&&&@&;6d%@%=&$&&&&&++:gx2%%&&&&&&&&&&&&@@@@@@++@$&&&&&",
"gddggvzg*%dgcpzddgzgdzd2+=yyggggpsgz;@%@@&ydyzpzdpgggdgy:<6:::2dzgdzpg",
"CCAACCNd*#2zAAACCCZZNSA2o3zCCCCCCCSCzydy<;zgccAZZCCACNAz;6znnAAAAAAACC",
"6664yq55336yy666q54y6y2%O;6665q466666655;&33266656666y62@;6yy666666666",
"*******&3py*&*;;*&;*%+O++*************;;;&;;;;;**;;;:&&&;&;;&;;;***=&:",
"6666y62@*32&*665:#;6*++*py666q666644&%226666556566665&&5y66666665qw3q3",
"AAAAAAz4;;*;yAAc6*6gzdkcAznAACCAZZAp=*dAAAAAAAAnZZzdd:1zCCAAAnyyvBBBBZ",
"ggggdzszzzzzzdcy2*6ddzczg3;2yggggzp2&*pdzddkzdy3*6666;:5dzdxk6$$3vssvp",
"&$&&@++%&&&&&%@&&@@&&%@&&@@@&&%&$&&@@@&&&%$%&&$@@$$&#%&&@@+++3kd3&&&&$",
"6662++*45;&26666666266646664@*24664366666466yq3q3&*33qw5=-=*%6Zcs=+=qy",
"zNNz2tzZz5*2dCzZCCzAncAZCAcy%=sNcczZmzcZCNAdazNz6%3zvNNNNNNzzzNCv3#qgy",
"zzpdppzjg5*:pzdgdgzgkzdkdgg4#=ypzzzcdzpzggg::dzp3%=ysjljjsgzgdzdy:#33;",
"1;;;1<;;:&&&*=:;::;;;;:;2;;&+***=:=;2::=;:=&+:;;*+&:;;;;;;;;;::::;+%&@",
":;;:*;*@@@$$@@*=*;;;&$&;:;;;2;;;*&@***;;*=*22;***$$@@OO@*;&=;&#:;***::",
"hCVCcgq*&@$$#*gNCNCva&qvCNzNCzCNz6*pggZmzNZzmNzzy*Ooo X#aChvCw&gNNzCAN",
"BvcCChq*&$$$%&vNNNCva&qCCzNCzCCCm6*psdzZNzNZzANzd&Ooo .#vvvBC5:gzCCCzC",
":;;=:;*#@@$$@@*;=&:;&@&;;;;;2;;;;&@***;;****:;**&%#@@OO@**&**&@*==*;;<",
";;::<<;;;&&&*;;;=;::;=;;;:;*#*;*;=*222;;2;2&&;;;;@&:*:;:;**:*:;:*=+%&%",
"ggsgaagcg5&<yvzsgghhszgsssg4#;qypczpzdkpdcd2=dzd<$:aggcgcagvvhggy=$1<;",
"NNNvwrcCg5;5sNzNNBBvNvNNNZZy%=sAzZzNNzZZzZZgdzAzq%1gccCCvCCvvccCN1#qgd",
"55w1++=33**:1q1qq5w5w5w36666@*:646666666666y666y2&;6666311:;%qNvy2+=6p",
"#&&&@+O%&&&&&&&&&#$&&&$$&#@@&&&&&%@@@@&&$&&$&&@@@$$&&$@&+#+O@=zs:&&&&@",
"ggggvgvvvzvvgggy<;5ydzvvy3::ygggkkp:&*pkcdkpkzy3;6666:;6ggzzv3%&2zzpzd",
"CCCCCCv3;**:yNSvq;5azdgvNNANAAACAAAz=*pAmmAAZmZZzZzdd:3zCCCCNgyyzZNZNC",
"4466663$*3=&;qwq=&33;++&py6566666y44&%2266666636y6645&&qy56535w36y4444",
"*******&3sy*&&:&&&=&&+O#+*:*********&;*:*&*:********;&&;&&;:=;&=******",
"4y666y66--6yw5qw3yqqtq3%o*y666564666y666:&32266y66666yq:&;5ywqyq666646",
"NNAAAAzz*@3vCCBBSBZBBSN=o6zAAACCNCAAddpy2&kzkcAAZAAAAAAz;5zvNNNZCAACAA",
"dsggpggp*%dzgddgddzddzg2+=ssdggdgdzd;@&#@;ydagggdzzddgzy;;5::;5dkpdkdz",
"&&%&&&&&@@@&&&&&&&$&&&yy@@%&&&&&&&&%@*dv2@@&&$&%&@&&@&%&@@$@++@@&&&&&&",
"5566266266626;&;:6663@&&@:666:*&:3666yzzz66665$*66;&=666d55566663;&:24",
"gzzCNZZCAAANg6*;dCACz6:32zCNAg3;3pvNNZNZZZzCCzqycp2*yzAZCCzCnnnCk6*6kZ",
"dgzsgzzgggzgd6&2avgzgaddddzgzy:;:qggggggdkkjzgyzzy*&6ddckddzkdzkg2*2yg",
":;;;:=;;2::;;;&*:;;;;<:::2;;2;*&*2::;;2=:;2=;;2:2;*&*;;:22:;;::::*%&*:",
";&*;;%@=;;*;;;;;;;**&$&;;*;;=;;=;;;:**&$@***;*****;::**%@&*;;;;;**=**;",
"zggAz2+zZzNNNzNAvSvzq*:gzZCzzNNNNNzNZjy;2yzzZzZzmZcAAmzy&:dCCzCAAzNZZZ",
"sgNNN3#dgzNNNNNNZNzzy*6CNNZczNCzvNNNNvy:2dzAcAZZzmAmzy22&;pZZzNzzANNNN",
"***2*%@*;*;;****;;::*#&;*;****;=;*;*;:*#%*;;;:;;;*<;&@@@@&;;;;;;;::***",
":;;;;:=:;2;;:;=;;*&&**;:=;222222:::=*&;;2**2;::;;2&&*&*;;2==::::;&&*::",
"dzzgggzzzgzgggszg6=*6ygggpgyp6yygsgs;*gapdzcdkzpyy:*yddzcdkzsggpq:&5pg",
"gvNBANzddddzANNNzy;;yzAAZZs62333zACg;;zzZccczzNzcc2;yzZmZczZZNNNs4;4zZ",
":q55665&++%:q3335:**366662;*;5*@:q61&&5q6666666566**26664666266zcy3326",
"&&&#$$@@OX+&&&&$@&&&&@@@@+2ZACd&%$&&&$$@+&@&&&&&@&&&&&&@&&&&&@&yccy:$+",
"ggggy:%3ypdggsvvzzgdcdp2::pzzzzzgdgggd5;2pdpzdggzpzygz2&6yygg6;&@&*6dc",
"CSBBv3*pcAAAAZdddcAAAAz6:2cZZZcAZAAAAz6&3ckcAAAACCZNAA6;kccZZZzpyykcZZ",
"3wwq3*&:26664yp66266662;&;2666y666666dc6362y656yy6665:*&24y44yy666y683",
"***&**&*;*****2y3@&***;&&****;*&****&;pd3@@&*;**&*****&&;**;**&*;;****",
"w05w66y66666:&2y6*;2y666y64666:+:666:;663*&*242*&:2264y6y6666;$2666644",
"NNNNzCNNAcAAd&5pddzAZcZZcZZZAp2*yZSZzsjyjjpjZNj2;gzzACNNZZNAZ6*6dZZZZZ",
"zzzznzzzzzcc2&zNZZzzcczzczzczd3*yzvzzzZcmZZjzzz4*ddszzcdzzzzz4&6dzzzcz"
};
