/* XPM */
static char *_e44df74c8904800f73756882f9b2b1djN32WAmsnWAUAnsL[] = {
/* columns rows colors chars-per-pixel */
"70 70 145 2 ",
"   c None",
".  c #000000",
"X  c #1A1400",
"o  c #000519",
"O  c #111111",
"+  c #171718",
"@  c #1C1C1C",
"#  c #211A00",
"$  c #000025",
"%  c #00002B",
"&  c #000C2B",
"*  c #00132B",
"=  c #0E1A2A",
"-  c #141D2A",
";  c #000033",
":  c #001332",
">  c #1C212A",
",  c #252525",
"<  c #24262A",
"1  c #27282A",
"2  c #2B2B2B",
"3  c #312F2A",
"4  c #36332A",
"5  c #39352A",
"6  c #3E3929",
"7  c #212A39",
"8  c #343434",
"9  c #3F3B33",
"0  c #3A3A3A",
"q  c #412B00",
"w  c #433D29",
"e  c #756300",
"r  c #474029",
"t  c #4B4329",
"y  c #5A4E21",
"u  c #544B28",
"i  c #5A4F28",
"p  c #5D5228",
"a  c #494437",
"s  c #665927",
"d  c #6B5D27",
"f  c #605428",
"g  c #695D35",
"h  c #726327",
"j  c #7E6E2C",
"k  c gray27",
"l  c #474748",
"z  c #4C4C4C",
"x  c #5A5548",
"c  c #444C5C",
"v  c #525252",
"b  c #5D5C5A",
"n  c #666666",
"m  c #6E6E6E",
"M  c #6F7071",
"N  c gray44",
"B  c #777878",
"V  c #7A7978",
"C  c #816D00",
"Z  c #8F7A19",
"A  c #816F25",
"S  c #867425",
"D  c #897624",
"F  c #8E7A24",
"G  c #88752B",
"H  c #907C24",
"J  c #8F7D39",
"K  c #8C7E51",
"L  c #B79D1E",
"P  c #BCA000",
"I  c #BCA11D",
"U  c #9A8523",
"Y  c #BCA226",
"T  c #C4A81B",
"R  c #CAAE1A",
"E  c #CDB019",
"W  c #DFBF13",
"Q  c #D1B318",
"!  c #E9C70F",
"~  c #ECCB0E",
"^  c #F5CE00",
"/  c #F1CE0B",
"(  c #F6D305",
")  c #FBD704",
"_  c #FEDA03",
"`  c #F4D10A",
"'  c #FBD709",
"]  c #FDD909",
"[  c #E4C311",
"{  c #E8C710",
"}  c #FBD716",
"|  c #FBD71B",
" . c #FFDB18",
".. c #FFE100",
"X. c #FBD723",
"o. c #FBD824",
"O. c #FBD82C",
"+. c #F5D225",
"@. c #F8D532",
"#. c #FBD834",
"$. c #95854F",
"%. c #BCA446",
"&. c #FBD945",
"*. c #FBDA4B",
"=. c #FBDB55",
"-. c #FBDB5B",
";. c #FFE25B",
":. c #FBDC63",
">. c #FBDD6B",
",. c #FBDE75",
"<. c #F9DE7F",
"1. c #858584",
"2. c #888787",
"3. c #8C8B8B",
"4. c #91908E",
"5. c #8F8F90",
"6. c gray57",
"7. c #BCBDBE",
"8. c #BCBAB6",
"9. c #C4BFB3",
"0. c #FADF83",
"q. c #F5E5B9",
"w. c #FBEBBE",
"e. c #C6C6C6",
"r. c #C9C9C9",
"t. c gainsboro",
"y. c #FBEDC5",
"u. c #F4EDDC",
"i. c #FBF3DE",
"p. c #E6E5E2",
"a. c #EAE9E6",
"s. c #E5E6E8",
"d. c #EEEEEE",
"f. c #F0ECE1",
"g. c #F0EFEF",
"h. c #FBF4E3",
"j. c #FAF6EC",
"k. c #FBF8EF",
"l. c #EEEFF2",
"z. c #EFF1F3",
"x. c #F3F3F3",
"c. c #F9F7F4",
"v. c #FBF9F5",
"b. c #F4F6FB",
"n. c #FCFDFE",
/* pixels */
"                                        2 2 8 < 2 2 2 2 2 2 2 2 2 2 2 2 2 2 2 2 2 2 2 2 2 2 2 2 1 2                                         ",
"                                        2 8 2 3 2 2 2 2 2 2 2 2 2 2 2 2 2 2 2 2 2 2 2 2 2 2 2 2 2 2                                         ",
"                                        2 2 2 2 2 0 0 0 0 0 0 0 0 0 0 0 0 0 0 0 2 2 2 2 2 2 1 2 2 2                                         ",
"                                        2 2 2 2 < . . . . . . . . . . . . . . . , 2 1 2 2 2 2 2 2 2                                         ",
"                    2 2 2 2 2 2 2 2 2 2 2 2 2 , k 7.r.r.r.e.r.e.e.r.e.e.e.r.r.e.z O 3 2 2 2 2 2 2 2 2 2 2 2 2 2 2 1 2 2                     ",
"                    2 8 2 8 2 2 2 2 3 3 2 2 8 . v v.n.n.n.n.n.n.n.n.n.n.n.n.n.v.b . 8 < 2 1 2 2 2 2 2 2 3 3 3 2 8 2 3 2                     ",
"                    2 2 2 2 2 0 0 0 0 0 0 0 0 2 b l.b.x.v.v.v.v.v.v.v.v.v.v.v.x.b # 6 5 5 5 5 5 5 5 2 2 2 2 2 2 < 2 2 2                     ",
"                    2 8 2 2 2 . . . . . . . . . 8 l.n.n.n.n.n.n.n.n.n.n.n.n.n.b.c . ; % % % % % % % < 2 1 2 2 2 2 2 2 2                     ",
"                    2 2 2 , 0 V 2.2.2.2.2.2.2.1.3.u.i.i.i.i.i.h.h.i.i.i.i.i.i.u.$.C G S D S S S S S 5 < 2 2 2 2 2 1 2 2                     ",
"          2 2 2 2 2 2 2 0 . z x.n.n.n.n.n.n.n.n.v.*.) ) ) ) ) ) ) ) ) ) ) ) ) ) _ _ _ _ ) ) _ ) _ ( p % 5 2 2 2 2 2 2 2                     ",
"          2 2 2 2 2 2 2 0 O v d.n.v.b.n.v.v.v.n.c.-.) O.} | } } } } | | | | | } ' ) ) ) ' ) ) ) _ ` p & 5 2 2 2 2 2 2 2                     ",
"          2 2 2 2 2 2 , 8 . l l.n.n.v.v.n.n.n.n.c.=.) | ) ) ) ) ) ) ) ) ) ) ) ) ) ) ) _ ) ) ) ` _ ` p % 4 1 < 2 1 2 2 2                     ",
"          2 2 , 2 2 , @ 2 . l g.n.n.n.n.n.n.v.n.v.=.) } _ ) ) ) ) ) ) ) ) ) ) ) ) _ ) ) ) ) ) ) _ / i % 2 < > 1 2 2 2 2                     ",
"          2 2 0 . l t.a.s.s.p.0.>.,.,.,.,.,.,.>.0.i.h.h.h.h.h.h.h.h.j.j.h.h.j.h.K e A h F ` _ ' ) ) { { { ! [ u = 2 2 2 2 2 2 2 2           ",
"          2 , 0 . v x.n.n.n.n.&.^ ) ) ) ) ) ) ) X.v.n.n.n.n.n.n.n.n.n.n.n.n.n.x.c . : % 6 ~ _ ) ) ) _ _ ) _ ) p * 2 2 2 2 2 2 2 2           ",
"          2 2 0 . v d.n.v.n.v.-.) o.| | X.| X.) *.c.n.v.v.n.v.v.v.v.v.v.v.v.n.x.b X 9 > i / _ ) ) ) ) ) ( _ / i * 3 2 2 2 2 2 2 2           ",
"          2 2 0 . z d.n.v.n.v.-.) } ) ) ) ) } ) &.k.n.v.n.n.v.n.n.n.n.n.n.n.n.b.b . 4 * u / ) ) ' ) ) ) ' ) ` i * 2 2 2 2 2 2 2 2           ",
"          2 2 0 . v d.n.v.n.v.=.) } ) ) ) ) } ) &.k.n.v.n.v.y.w.y.w.w.w.w.w.y.q.x o 4 * u / _ ' ) ) ) ' ) _ ` i * 4 2 2 1 2 2 2 2           ",
"2 2 2 2 2 1 1 0 . v g.n.v.n.v.-.) } ) ) ) _ } ) &.k.n.v.n.c.#.) ) ^ ) ) ) ) ) ^ i * 4 * u / _ ) ) ) ) ) ( _ ` i * 3 1 1 2 1 2 2 2           ",
"2 2 2 2 2 4 8 0 O v g.n.v.n.v.-.) } ) ) ) ) } ) &.v.n.v.n.c.:.) #.X.X.X.X.X.o.+.p & 4 * u / ) ' ) ] ) ) ) ) ` p > 5 4 3 2 2 2 2 2           ",
"2 2 2 2 1 . . O . 0 x.n.n.n.v.=.) | ) ) ) ) } ) &.k.n.v.n.c.=.) X.) _ ' ' ' ) / i * 4 * u ~ _ ) ) ) ) ) ' _ ` r % & % & 1 2 2 2 2           ",
"2 2 2 1 8 n m m n V a.k.j.j.j.=.) } ) _ ) ) } ) &.v.n.v.n.c.=.) X.) ) _ ) ) _ ` i * 4 * u / _ ) ) ] ) ' ) _ ( j s d d s 3 1 2 2 2           ",
"2 2 4 O z d.n.x.n.c.-.) @.o.X.' ) ) ) ) ) ) } ) &.j.n.v.n.c.=.) X.) ) ) _ ' _ ` i * 4 * u / ) ' ) ) ' _ ) ' ) ' ) ' _ ` u * 3 1 1 2 2 2 2 2 ",
"2 2 2 O z g.n.n.n.v.-.) } ) ) ) ) ) ) _ ) ) } ) &.c.n.v.n.c.=.) X._ ' ) ) ) _ ` i * 4 * u / _ ) ) ) ) ) ) ) ) _ _ ) _ ( u * 3 2 2 1 2 2 2 2 ",
"2 2 3 O l d.n.v.n.v.-.) O.} } ' ) _ ) ) ) ) } ) &.j.n.v.n.v.=.) X.) ) ) ' ) ) ` i * 4 * u / _ ) ) ) _ ) ] ) ) ' ) ) ) ` i * 3 2 2 2 2 2 2 2 ",
"2 2 3 O z d.n.v.n.v.-.) X.) _ ) ) ) ) ) ) ) } _ &.j.n.v.n.v.-.) X.) ) ) ) ) ) ` p & 4 * u / ) ' ) ' ) ' ) ) ) ) ' ) ) ` i * 3 < 2 2 2 , 2 2 ",
"1 2 8 O z d.n.v.n.c.-.) X.) ) ) ) ) ) ) ) ) } ) &.j.n.v.n.v.=.) X.) ) ) ) ) ) ' i * 4 * u / _ ) ) _ ) ) ) ) ) ) ) ) ) ` u * 3 2 2 2 2 2 2 2 ",
"2 1 2 O z x.n.v.n.c.-.) X.) ) ' ) ) ' ) ) ) } ) &.v.n.v.v.c.-.) X.) ) _ ) ) ) ` i * 4 * u ~ _ ) ) ' ) ' _ ) ) ) ) ) ) ` i * 3 2 2 2 , 2 2 2 ",
"2 2 2 O z l.n.v.n.c.-.) X.) _ _ ) ] ) ) ) ) } ) &.v.n.v.n.v.=.) o.) ) ) ) ) ) ' i * 4 * u / _ ' ) ) _ ) ) ) ) ] ) ) ) ` u * 3 2 2 2 2 2 2 2 ",
"2 2 8 O z l.n.v.n.v.-.) X.) _ ) ) ) ] ) ' ) } ) &.j.n.v.n.v.=.) o.) ' ) ] ) ) ` i * 4 * u / _ ) ) ' ' ) ' ) ) ) ) ] _ ` u * 3 2 2 , 2 2 2 2 ",
"2 2 8 O z d.n.v.n.v.-.) X.) ) ) ) ] ) ) ) )  .) &.v.n.v.n.v.=.) o.) ) ) ) ) ) ' i * 5 * u ~ _ ) ) ) ) ) ) ) ) ) ) ' ) ` u * 3 1 2 2 2 2 2 , ",
"2 2 2 O z l.n.v.n.c.-.) X.) ) ) ) ) ) ) ) ) } ) &.j.n.v.n.v.-.) | ) ' ) ) ) ) ` i * 5 * u / _ ' ) ' _ ) ) ) ] ) ) ) ) ` u * 3 2 2 2 2 2 2 2 ",
"2 2 2 O z d.n.v.v.v.-.) o.) ) ) ' ) ) ) ) ) } ) &.j.n.n.n.v.-.^ o.) ) ) ) ) ) ' i * 4 * u / _ ) ) ) ) ) ) ) ) ' ) ) _ ` i * 4 1 2 2 1 2 2 2 ",
"2 2 8 O z x.n.v.n.v.-.) o.) ) ) ) ) ) ' ) ) } ) &.v.n.v.n.c.=.) o._ ) ) ) ) ) ` p & 4 * u / _ ' ) ) ) ) ] ) ) ) ) ) ' ` u * 3 1 2 2 2 2 2 , ",
"2 2 8 O z d.n.v.n.v.-.) o.) ) ] ) _ ) _ ) ) } ) &.k.n.v.n.c.=.) o.) ) ) ) ) ) ' i * 4 * u / _ ) ) ) ) ) ) ) ) ) ) ) _ ` i * 4 1 2 2 , 2 2 2 ",
"2 2 2 O z d.n.v.n.v.-.) o.) ) ) ' ) ) ) ) _ } ) &.k.n.v.v.v.=.) X.) ) ) ) ) ) ` i * 4 * u ~ _ ) ' _ ' ) ) ) ] ) ] ) _ ` u * 3 1 2 2 2 2 2 2 ",
"2 2 2 O z d.n.v.n.v.-.) X.) ) ) ) ) ) ' ) ) | ) &.k.n.v.n.c.-.) o._ ) ) ) ) _ ` i * 4 * u / ) ) ) ) ) ) ) ] ) ) ) ' ) ` i * 3 2 2 2 2 2 2 2 ",
"2 2 2 O z d.n.v.n.v.-.) X.) ) ) ) ) ) ) _ _ } ) &.k.n.v.n.c.-.) o.) ) ) ' ) ) ' i * 4 * u / _ ' ) ) ) ) ) ) ' ) ) ) _ ` u * 3 1 2 2 2 2 2 2 ",
"2 2 8 O z g.n.c.n.c.-.) X.) ' ) ) ) _ ' ) ) } ) &.k.n.v.n.c.=.) o.) _ ' ' ) ) ` i * 4 * u / _ ) ) ) ) ] ) ] ) ) ) ) ) ` i * 3 2 2 , 2 2 , 2 ",
"2 2 2 O z x.n.b.n.c.=.) X.) _ ) ' ) ) ) ) ) } ) &.v.n.v.n.c.=.) X.) ) ) ) ) _ ` i & 4 * u / _ ( ' ) ) ) ) ) ) ) ' ) ) / i * 2 2 2 2 2 2 2 2 ",
"2 2 3 O z l.n.v.n.c.-.) X.) ) ) ) ) ) ] ) ) } ) &.k.n.v.n.v.=.) X.) ) ) ) ' _ ` i * 4 * u / _ ' ) ) ' _ ) ) ) ] ) ) _ ` u * 4 1 2 2 2 1 2 2 ",
"2 2 3 O z l.n.v.n.c.:.) X.) _ _ ' _ ) ) ) ) } _ &.k.n.v.n.v.=.) X.) ) ) ) ) _ ` i * 4 * u / _ ) _ ) ) ) ] ) ) ) ) ) _ ` u * 3 2 1 2 2 2 2 2 ",
"2 2 8 O z l.n.v.n.c.=.) X.) ) _ ) ) ) ) ) ) } ) &.k.n.v.n.v.=.) o._ ) ) ) ) _ ` p * 4 * u / _ ` ' ) ) ) ) ) ) ) ) ) _ ` i : 4 1 2 1 2 2 2 2 ",
"2 2 2 O z x.n.v.n.c.-.) o.) ) ) ) ) ' ) ) ) } ) &.v.n.v.n.v.-.) X.) ) ) ' ) _ ` p * 4 * u / _ ) ) ) ' ) ) ) ) ) ' ) ) ` i * 3 1 2 1 2 2 2 1 ",
"2 2 2 O l g.n.v.n.v.-.) o.) ) ) ) ) ) ) ) ) } ) &.v.n.v.n.c.=.) o.) ) ) ) ) _ ` i * 5 * u / _ ) ' ) ' ) ] ) ) ' ) ) ) ` u * 4 1 2 1 2 1 2 2 ",
"2 1 8 O z d.n.v.n.v.-.) O.} } ) ) ' ) _ ) ) } ) &.j.n.v.n.c.=.) o.) ) ) ) ) _ ` i * 4 * u / _ ' ) _ ) ) ) ) ) ) ) ) ) ` u * 3 1 2 2 2 2 2 2 ",
"2 2 3 O z l.n.v.n.v.=.) } ) _ ) ) ) ) ) ) ) } ) &.k.n.v.n.c.=.) o.) ) ) ) ) _ ` i & 4 * u / _ ) ' ) ) _ ) ) ) ) ) ) _ ` i * 3 2 2 2 2 < 2 2 ",
"2 2 4 O l x.n.v.n.v.-.) o.) ) ) ) ' ) ) _ ) } ) &.c.n.v.n.v.=.) o.) ) ) _ ' ) ` i * 4 * u ~ _ ) ) ) ) ' ) ] ) ) ) ' ) ` u * 3 1 2 2 2 2 2 2 ",
"1 2 2 1 8 m B B M $.u.j.h.j.h.*.) } ) ) ) ) } ) &.c.n.c.n.v.=.) o.) ) ) ) ) _ ` i * 5 * u / _ ) _ ' ) ) ) _ ` S h h h h 4 < 2 2 2           ",
"2 2 2 2 2 . . . o 0 z.n.n.n.b.-.) } ) ) ) ) } ) &.h.n.v.n.v.-.) o.) ' ) ) ) _ ` i * 4 * u / _ ' ) ) ' _ ) ) / r % & % % 2 2 2 2 2           ",
"2 < 2 2 2 8 0 0 = v d.n.c.n.v.=.) } _ ) _ ) } ) &.k.n.c.v.v.=.) X.) ( ) ) ' ) ` i * 4 * u ~ _ ) ) ] ) ) ' _ ` p > 5 4 3 2 2 2 2 2           ",
"2 8 3 2 2 2 , 8 . v l.n.v.n.v.-.) } ) ) ) ) | ) &.n.n.n.n.n.;._  ._ ...._ _ _ _ i & 5 * u / _ ( ) ) ) ) ) _ / i * 3 2 2 1 2 2 2 2           ",
"  2 2 2 2 2 1 0 . z g.n.v.n.c.-.) } ) ) ) ' ' ) @.9.7.7.7.8.%.P Y I I I I I I L r > 4 * u ~ _ ) ) ) ) ) ' _ / i * 3 2 2 2 2 1 3 2           ",
"          2 2 8 . v g.n.v.n.v.-.) } ) ) ) _ ) ] ( q . . . . $ ; % % % % % % % % < 2 3 * u ` _ ) ' _ ' _ ) _ ` i * 3 1 2 2 2 1 2 2           ",
"          2 2 0 . z d.n.v.v.c.-.) X.| | ' ) ) ) ` g 7 a 0 w 9 6 w 6 6 6 6 6 w 6 4 4 5 > i ~ _ ( ) ' ) ) ` ) / u * 3 2 2 2 2 2 2 2           ",
"          2 2 0 . v x.n.n.n.n.*.) ) ) ) ) ' ) _ ( u % = % % % % % % % % % % % % % % & % w ` _ ) ) ) _ _ _ ..) i * 3 2 2 2 2 2 2 2           ",
"          2 2 0 . z t.d.a.d.a.<.:.>.>.>.o.) ) ) ` S s h h d h h h h h h h h h h h h h d j ` _ ' ) ) ~ ! ! ~ W u = 3 1 3 1 2 2 2 2           ",
"          2 2 2 2 2 8 8 0 + v d.n.v.n.v.=.) } ) ) ) ) ) ' ) ) ' ' ' ' ) ( ' ) ( ' ) ) ) ( ) ) ( ) ` f * 6 3 3 2 3 1 2 2                     ",
"          2 2 2 2 2 @ @ 8 . k x.n.n.n.v.=.) } ) ] ) ) ) ) _ _ ) ) ) ) ) _ ) ) ) ) ) ) ) ) ) ) ( _ ` i % 2 , , 2 1 2 2 1                     ",
"          2 2 2 2 2 8 2 0 O z d.n.v.v.v.=.) } ) ) ) ' ) ' ) ) ' ) ) ' ) ) ' ) ' ) ) ) ) ) ) ' ' ) ` p * 5 3 3 2 1 2 3 1                     ",
"          2 2 2 2 2 2 1 0 . z x.n.n.n.n.;._  ._ ..' ) ) ) ) ) ) ) ) ' ) ) ' ) ) _ _ _ _ _ _ _ _ _ ( p % 4 1 1 2 2 2 2 2                     ",
"                    2 2 2 , 0 2.6.3.6.4.J Z F F U / _ ' ) ) ' ) ) ) ) ) ) ) ) ' U D U D H F H F U S 5 < 3 2 2 2 2 2 2 2                     ",
"                    2 2 2 2 , . . . . . $ % % % 1 / _ ) ) ) ) ) ' ) ) ) ) ) _ ` 6 % % % % % % % % % 1 2 1 2 2 2 2 1 2 2                     ",
"                    2 2 2 2 2 0 0 0 0 0 5 5 6 1 i ~ _ ` ' ) ` ) ' ) ) ' ( ' ) ` f < 6 5 5 5 5 5 5 5 2 2 1 3 1 1 1 2 2 2                     ",
"                    2 2 2 2 2 2 2 2 2 2 2 1 2 * u ` .._ _ _ _ .._ _ .._ .._ _ ) p & 2 2 1 1 2 1 1 2 2 4 3 2 3 8 2 3 3 2                     ",
"                    2 2 2 2 2 2 2 2 2 2 , 2 3 > w T Q R Q Q E E E Q E E E Q Q R t - 3 1 1 2 3 1 2 1 2 2 2 1 < < 2 2 1 2                     ",
"                                        2 2 2 2 1 % % % % % % % % % % % % % % % , 2 1 2 3 1 1 3 2 2                                         ",
"                                        2 2 2 2 2 5 5 5 5 5 5 5 5 5 5 5 5 5 5 5 2 1 3 1 1 2 1 1 2 2                                         ",
"                                        2 2 2 2 1 1 1 1 1 1 2 1 1 1 1 1 1 1 2 1 2 2 2 2 2 1 3 1 2 2                                         ",
"                                        2 2 2 2 1 2 2 2 2 2 2 2 3 2 2 1 1 1 3 2 2 2 2 2 2 1 1 2 2 2                                         "
};
