/* XPM */
static char *bcf38089d3ae4e60c7a1b5d991381faf55xEaTlw4m4SFRsl[] = {
/* columns rows colors chars-per-pixel */
"70 70 25 1 ",
"  c None",
". c #200808",
"X c #281820",
"o c #552B15",
"O c #5E3E33",
"+ c #7C4D3C",
"@ c #6B5C40",
"# c #9F2828",
"$ c #9D3F3F",
"% c #AC5D1F",
"& c #805F58",
"* c #AC7676",
"= c #D0755D",
"- c #E09E2B",
"; c #928364",
": c #A79778",
"> c #F78E73",
", c #FCCF56",
"< c #FFE67D",
"1 c #C5B38F",
"2 c #C5B595",
"3 c #DBCBAB",
"4 c #9CF3D9",
"5 c #EAD7CA",
"6 c #F6F6C2",
/* pixels */
"                                                                      ",
"                                                                      ",
"                                                                      ",
"                                                                      ",
"                                                                      ",
"                                                                      ",
"                                                                      ",
"                                                                      ",
"                                                                      ",
"                                                                      ",
"                                                                      ",
"                                                                      ",
"                                                                      ",
"                                                                      ",
"                          ....          ....                          ",
"                          .<6<..      ..<6<.                          ",
"                          .-o%<..    ..<%o-.                          ",
"                          .-oo%-.oooo.-%oo-.                          ",
"                          .-ooo%-o--o-%ooo-.                          ",
"                          ..ooo---oo---ooo..                          ",
"                           ..oo--oooo--oo..                           ",
"                           ..--,%....%,--..                           ",
"                          .oo.o-%.oo.%-o.oo.                          ",
"                          .-%o..-%oo%-..o%-.                          ",
"                          .o-%.4.%oo%.4.%-o.                          ",
"                           .,6<..%--%..<6,.                           ",
"                           ..%,-%-,,-%-,%..                           ",
"                        XXX ..%--%,,%--%..                            ",
"                       X@&*; ..-,%,,%,-.. X                           ",
"                      X@*&5:: .,-oooo-,. ;@XXX                        ",
"                      X:;553::;.-....-.;:;;::@X                       ",
"                     X@22333:&&.-%..%-.:113553@X                      ",
"                     X;2;23:@&$&.%..%.:1113523:X                      ",
"                     X@@3@:&&#*31.oo.331312;223@X                     ",
"                    XX++;@;::;#;31..::3331;22;3;X                     ",
"                    XO+:;X@:*$$;;::::33311+;;@@;X                     ",
"                    X**:@XX;:::$$*::13311+O@@@*:X                     ",
"                    X;&*&@X@;:3::::135513+*X::@>X                     ",
"                    X:;&;*X@*;;:333333:;OO@X*=>&X                     ",
"                    XO&;:;XX+*:335;:531&+@XX@=$$X                     ",
"                    X@&;@@XX$+*155:*;11::;@X@@&$X                     ",
"                     X;*;&X+**:*133:**:::;@X:;@@X                     ",
"                      XXXXX@:*:;:111*=:;;;X@=;;:X                     ",
"                          X;:=:;;:::*;@;:;X=323:X                     ",
"                          X;:=::@XXXX*:::;X=@33&X                     ",
"                          X;:*3:;X  X==::;X@@2;*X                     ",
"                          X;*33:;X  X*;;;;X+***X                      ",
"                          X@:3;:@X  XX*;;;@XXXX                       ",
"                           X:=;*@X  XX*@;*;X                          ",
"                           X=*;=X   X;:333*X                          ",
"                          X@**;@X   X@;3333;X                         ",
"                          X=***;X   X@;;2233X                         ",
"                         X@*=22:@X   X@2;;2:X                         ",
"                         X;23332@X    XXXXXX                          ",
"                         X235;2;*X                                    ",
"                         X;*=;2=;X                                    ",
"                          XXXXXXX                                     ",
"                                                                      ",
"                                                                      ",
"                                                                      ",
"                                                                      ",
"                                                                      ",
"                                                                      ",
"                                                                      ",
"                                                                      ",
"                                                                      ",
"                                                                      ",
"                                                                      ",
"                                                                      ",
"                                                                      "
};
