/* XPM */
static char *_dee32130a514e1ea694717bf9a68bdcaoG1FJPnsKuPMEsd[] = {
/* columns rows colors chars-per-pixel */
"70 70 234 2 ",
"   c None",
".  c #000000",
"X  c #070709",
"o  c #1C0000",
"O  c #1C0A0A",
"+  c #150707",
"@  c #071919",
"#  c #081011",
"$  c #270606",
"%  c #3B0000",
"&  c #390809",
"*  c #271717",
"=  c #3B1B1B",
"-  c #361515",
";  c #032000",
":  c #060F34",
">  c #082827",
",  c #122929",
"<  c #033939",
"1  c #1B3B3B",
"2  c #173636",
"3  c #03213E",
"4  c #292B2B",
"5  c #362828",
"6  c #253737",
"7  c #383233",
"8  c #430202",
"9  c #4A0000",
"0  c #470A0B",
"q  c #491616",
"w  c #530C0E",
"e  c #670002",
"r  c #780000",
"t  c #6F1019",
"y  c #7B2804",
"u  c #701C22",
"i  c #442121",
"p  c #4C2525",
"a  c #4D2929",
"s  c #422929",
"d  c #532B2B",
"f  c #5B2E2E",
"g  c #552424",
"h  c #553030",
"j  c #5D3030",
"k  c #4E3436",
"l  c #653232",
"z  c #6A3535",
"x  c #6F3838",
"c  c #733A3A",
"v  c #7C3E3E",
"b  c #73343B",
"n  c #682B33",
"m  c #19432F",
"M  c #001547",
"N  c #001C59",
"B  c #0D2C4D",
"V  c #001F63",
"C  c #02236A",
"Z  c #03297A",
"A  c #3C3741",
"S  c #573540",
"D  c #004848",
"F  c #1C4242",
"G  c #1B4C4C",
"H  c #154C4C",
"J  c #015858",
"K  c #185857",
"L  c #234C4C",
"P  c #244747",
"I  c #354545",
"U  c #265252",
"Y  c #2A5555",
"T  c #2C5B5B",
"R  c #2F5D51",
"E  c #325959",
"W  c #336658",
"Q  c #325778",
"!  c #295069",
"~  c #026667",
"^  c #196A6A",
"/  c #027676",
"(  c #177575",
")  c #2C6363",
"_  c #2E6B6B",
"`  c #236868",
"'  c #336363",
"]  c #346C6C",
"[  c #3B6E6E",
"{  c #396564",
"}  c #397168",
"|  c #297778",
" . c #327474",
".. c #3B7474",
"X. c #357B7B",
"o. c #3D7B7B",
"O. c #3B7877",
"+. c #1F4874",
"@. c #4E4F50",
"#. c #7F4141",
"$. c #685658",
"%. c #407D7D",
"&. c #477676",
"*. c #4A6C6A",
"=. c DimGray",
"-. c #757676",
";. c #717070",
":. c #8C0100",
">. c #9B0000",
",. c #850313",
"<. c #990013",
"1. c #A70000",
"2. c #B3060F",
"3. c #933311",
"4. c #B43D09",
"5. c #8F1A25",
"6. c #B2172F",
"7. c #942928",
"8. c #BB252D",
"9. c #BD2231",
"0. c #A72B2F",
"q. c #C30000",
"w. c #C60224",
"e. c #CA0A2D",
"r. c #C72635",
"t. c #D52637",
"y. c #DC3A31",
"u. c #D6371C",
"i. c #A4471F",
"p. c #D54816",
"a. c #DD4627",
"s. c #AC3C4B",
"d. c #E9364F",
"f. c #814141",
"g. c #854343",
"h. c #874444",
"j. c #8A4646",
"k. c #8E4949",
"l. c #914A4A",
"z. c #954C4C",
"x. c #9A4F4F",
"c. c #91474E",
"v. c #9E5151",
"b. c #834D54",
"n. c #A15353",
"m. c #B4515C",
"M. c #8F6963",
"N. c #A96F6A",
"B. c #CD4E59",
"V. c #CD5B68",
"C. c #EC5968",
"Z. c #EF6271",
"A. c #DD686F",
"S. c #3B807B",
"D. c #42827A",
"F. c #93827D",
"G. c #012E8A",
"H. c #173C8B",
"J. c #07338E",
"K. c #003FB5",
"L. c #1A4293",
"P. c #32548B",
"I. c #3B7389",
"U. c #0D47B9",
"Y. c #1747A7",
"T. c #2D54B0",
"R. c #124CC4",
"E. c #1751CB",
"W. c #1B5BDA",
"Q. c #0D4EC8",
"!. c #2B5BCD",
"~. c #1C62EA",
"^. c #2F71F5",
"/. c #2B63D6",
"(. c #048585",
"). c #198584",
"_. c #2A8585",
"`. c #3B8383",
"'. c #3A8A8A",
"]. c #359191",
"[. c #428383",
"{. c #468B8B",
"}. c #4B8D8D",
"|. c #488786",
" X c #518E8E",
".X c #4C9393",
"XX c #4F9A9A",
"oX c #459696",
"OX c #519393",
"+X c #529C9C",
"@X c #589E9E",
"#X c #498F90",
"$X c #788383",
"%X c #55A4A4",
"&X c #59A5A5",
"*X c #5BABAC",
"=X c #55ABAB",
"-X c #5DB0B0",
";X c #60AFAF",
":X c #55A29E",
">X c #8B8B8B",
",X c #888586",
"<X c #8B9696",
"1X c #969898",
"2X c #998A88",
"3X c #AF948A",
"4X c #9BA6A6",
"5X c #88A6A6",
"6X c #ACACAC",
"7X c #A5A8A8",
"8X c #AAB3B3",
"9X c #B2B2B2",
"0X c #BABBBB",
"qX c #B1B8B8",
"wX c #B1ADAD",
"eX c #C9B7B1",
"rX c #BCC5C5",
"tX c #C2C3C3",
"yX c #CBCDCD",
"uX c #C5C9C9",
"iX c #D5D5D5",
"pX c #DADADA",
"aX c #D9DBD8",
"sX c #D6D0CB",
"dX c #E4D7C9",
"fX c #EDE9D8",
"gX c #E3E4E4",
"hX c #EBEBEB",
"jX c #E7E9E9",
"kX c #EEF1F1",
"lX c #F4F4F4",
"zX c #FEFEFE",
"xX c #FDFBF6",
"cX c #FBF3E4",
/* pixels */
"                                                                                                                                            ",
"                                                                                                                                            ",
"                                                                                                                                            ",
"                                                                                                                                            ",
"                                                                                                                                            ",
"                                                                                                                                            ",
"                                                                                                                                            ",
"                                                                                                                                            ",
"                                                                                      .                                                     ",
"                                                                                      * +                                                   ",
"                                                      i h l z z x x x x l d i         = f                                                   ",
"                                            * f c g.k.z.z.z.z.b.k.l.l.l.z.z.x.k.h.x f * c d                                                 ",
"                                        O c k.z.j.g.f.#.v #.v 7.7.#.#.v v v v #.g.h.l.k.x v x z l p O .                                     ",
"                                        = c v c c c #.#.f.f.g.h.b.#.g.g.#.#.#.#.v c c c x x v x i .                                         ",
"                                  + i f l x v c c v c #.#.f.f.f.g.g.#.#.#.v v c c c x x c x x x x z                                         ",
"                                    = z #.k.l.k.k.h.g.g.g.g.g.g.g.g.g.g.f.f.f.g.g.g.l.k.x l.n.n.g.x p .                                     ",
"                              O p z c g.v.v.v.n.v.n.v.v.v.v.v.x.v.k.l.v.v.v.v.#.v.n.k.j l x.l.k.c -                                         ",
"                            . $ p z #.g.v x #.g.k.j.z.x.x.x.z.v.z.d z v.v.z.l a k.c a a f x l j l x =                                       ",
"                              * f l x x z l j z l a l c c z d #.l a a x c j p d d a q a a f z z l z l X                                     ",
"                              O - l #.c l f d l j d h z h a d f h d d a h p a h q * $ i d l f f l l z =                                     ",
"                          . * f x x x z f d d h q 5 d h q q h d 9 * s g 8 4 = 8 T L , * d d a f z j l p                                     ",
"                                . d c j h 0 p 0 F 5 w 8 I P 9 % ] {.$ 5 [.] o O.+X{.X.q f a d j z f z d                                     ",
"                                  c l d 8 U O T XX6 I [.=X..F .X*X&X[.+X=XO.{.&X+X&X] % 7 * p d f f z g                                     ",
"                                p f a 0 T +Xo.XX%X#XXX&X&X+X&X-X=X&X-X*X%X&X&X+X%X+XY ) ] 6 g d d f z f                                     ",
"                              . * . 5 9 %.%X.X.X@X%X:X:X&X=X=X&X*X*X*X-X-X&X&XXXXXo.P E ] 5 d d a f z g                                     ",
"                                    * 9 [.@X[ ..%X%X&X%X&X=X&X*X*X-X-X*X*X-X;X+XOX{.1 E O.= - a d a j i                                     ",
"                                    @ 0 [.L O.XX&X-X-X%X%X%X&X=X&X*X-X*X=X]./ / / | }.+Xo.o , p d d h 5                                     ",
"                                      $ }.] {.&X*X*X-X%X%X&X&X&X&X*X*X&X( 4XyXpXyX<XD }.] U ) 8 d $ . .                                     ",
"                                    1 @ OX&X{./ | ].&X%X%X[ {.&X@X%X&X^ uXzXzXzXzXzXrXD { .X_ 8 q H O...' .                                 ",
"                                  { %XU }..X*.yXjX8X].+XXX[.}.%X+X&X).4XzXgXhXzXzXzXzX<XD +XO.8 $ `..X#X+X.XP                               ",
"                                E +X.XY  X~ uXzXzXzX5X]..X%X+X+X+X&X~ uXlXgXjXxXzXzXzXrX<  X[.$ 4 O.O.O.%..X+X2                             ",
"                                {.}.[.L %.&.gXgXkXzXrX(.@X.X+XXXXX@X~ qXzXgXgXgXjXlXzX6X<  X{.. G &.O...O.o..X..                            ",
"                              . {.{.[.P }.J aXzXgXzX4X_.+X.XXX.X.X+X[.W hXzXlXhXxXzXgX' T OX[.X T %...O.O.[.}.O.                            ",
"                                ...X%.L +X^ $XhXzXyXI..X#X.X.X.X.X.X.X_ *.uXkXxXkXuX{ H |.XXo.2 ] o.O...O.[.#XY                             ",
"                                > |.[.Y .X#X^ E D.^ {.#X#X XOX.X.X.X.X.X&.D E *.T < T {..Xo...L ..o...O.[..XO..                             ",
"                                  > ..L [.[.}.{.`.OX}.#XoX{.`.X.| I.'.oXoX X[.X.%.}..X#XI.W ..&...&.[.[.[.) .                               ",
"                                      . , Y [ [.}.{._.` @.j b.M.F.F.=.S *.I.].#X#X..[ *...D. .^ 2 @ F F #                                   ",
"                                            , L [  .$.M.eXdXcXxXxXxXfXdX3Xs.;.X.O.T J ~ ~ G k e e 9                                         ",
"                                                  > t M.aXdXsXdXxXzXcXgX2X6.s.1 7 @.n u <.<.,.7.u 0 X                                       ",
"                                                        e e.w.8.eXeXN.1.. 3.3.4.6.w.r.8.8.5.i.8.0.5.w                                       ",
"                                                          C.C.B.e.e.d.B.3.y.0.a.t.r.9.8.6.3.a.9.0.5.u &                                     ",
"                                                          m.Z.C.C.C.Z.b 4.2.:.p.t.r.9.8.5.y 2.:.,.r t 0                                     ",
"                                                            m.V.V.V.c.. w $.D p.t.r.9.9.0.e } ].| I 4 8 8                                   ",
"                                                              D           ).S.4.a.r.r.6.2.1.%.:X{. .d 0 1                                   ",
"                                                  U _ _ F   o '  .    ) o.`.X.D i.n 2.u E |.#X#X[._ 7 A _                                   ",
"                                                P X.U T `.`.X.T `._ '.oX`.] _ ) ~ T &.XX&X&X.X.X[.' I.O.%.                                  ",
"                                                  @ G F `.oX`.`.`.X.'.`.U o..X.X|.XX+X@X+X.X{.D.} D.{.} ] m                                 ",
"                                                  _ O. .`.X.X.X.X. . .` > T +X&X@X#X#X{...{ Q Q Q P.I.P.P.P.                                ",
"                                                G ] . 2  . . . . .T > 2 T &X&X%XXX{...Q Y.E.!.!.T.T.T.H.J.N                                 ",
"                                                2   1  .U P L L P . ..{.}.XXXX+X|.|.R E.~.W.E.K.H.^.~.Q.G.M                                 ",
"                                                    H )           U .X1 , .X+X.Xo.W B V V N C : !.^.W.Q.J.C                                 ",
"                                                      1           P ... [.o.' D.E K.U.Z N       ^.^.W.Q.J.V                                 ",
"                                                                      F }., B D.L.~.E.G.V     ! ^.^.W.R.G.N                                 ",
"                                                                        ] T # ] *.Z Y.G.N     P.^.^.E.U.J.N                                 ",
"                                                                              # F m 3 M :     3 H.+.! Z C M                                 ",
"                                                                              H | ( K ;         W :XOXW ; X                                 ",
"                                                                              ` _.| ^ <         .X-X%X.XY                                   ",
"                                                                                | | ` K @       ..-X@X.Xo.                                  ",
"                                                                                G X. .` F         [.=X%X XE                                 ",
"                                                                                  ~ J D < .       Y oX(.(.J                                 ",
"                                                                                  -.<X>X>X,X        $X8X6X6X7X                              ",
"                                                                                . >XwX6X9XuX@.      >XiXiXaXhX4X                            ",
"                                                                        . ,X9XtX9X-.% r r o 1XiXhXgX6X9 :.1.>.7.                            ",
"                                                                      @.tXaXaXaXpXuXwX$.g iXzXzXzXzXxXgX>X1.2.A.wX                          ",
"                                                                    6 9XaXiXiXyXtX0XtX-.0XzXzXzXzXlXgXhXiX;.1.B.sX@.                        ",
"                                                                    =.0XwX0X0X9XwXwX1X;.gXpXgXgXgXpXaXyXuX9Xe 1.>.-                         ",
"                                                                    =.1X1X1X>X>X>X>X;.=.wXrX0XwX6X6X6X7X6X6X1X2XM.*.                        ",
"                                                                    M.wXuX0X6X6X6X9X>X>XiXlXhXiXiXiXiXaXaXaXpXpXuX,X                        ",
"                                                                                                                                            ",
"                                                                                                                                            "
};
