/* XPM */
static char *_3d1d87be1ac4707a4f94b212483fcf1iioEevFgzEZXszwm[] = {
/* columns rows colors chars-per-pixel */
"70 70 237 2 ",
"   c None",
".  c #060236",
"X  c #03293C",
"o  c #003A3E",
"O  c #01353D",
"+  c #1C3A3E",
"@  c #1C383D",
"#  c #1E2639",
"$  c #233A3D",
"%  c #2B373D",
"&  c #35363B",
"*  c #3C1D35",
"=  c #6E1423",
"-  c #761926",
";  c #5D3328",
":  c #473438",
">  c #563136",
",  c #772828",
"<  c #6E3C2B",
"1  c #633527",
"2  c #723529",
"3  c #733D2C",
"4  c #7B3C2D",
"5  c #7C362A",
"6  c #673735",
"7  c #783A33",
"8  c #6F2525",
"9  c #6D001D",
"0  c #2F443F",
"q  c #4B433B",
"w  c #5B4A3C",
"e  c #6E432D",
"r  c #74412D",
"t  c #7A432F",
"y  c #77492F",
"u  c #664539",
"i  c #7D4531",
"p  c #7D4A33",
"a  c #774934",
"s  c #7A5936",
"d  c #7E643A",
"f  c #1F3D40",
"g  c #213D42",
"h  c #254243",
"j  c #335341",
"k  c #565B41",
"l  c #5A764A",
"z  c #526B47",
"x  c #767547",
"c  c #697447",
"v  c #7B696E",
"b  c #8B0D2A",
"n  c #8C272B",
"m  c #8C322D",
"M  c #833C2E",
"N  c #8C3A2F",
"B  c #84362E",
"V  c #903A2C",
"C  c #833E30",
"Z  c #8D3D31",
"A  c #853131",
"S  c #953E36",
"D  c #93510B",
"F  c #977709",
"G  c #8C4A2D",
"H  c #834531",
"J  c #8C4532",
"K  c #844A33",
"L  c #8C4C34",
"P  c #8D453C",
"I  c #914D34",
"U  c #954737",
"Y  c #8E5336",
"T  c #8E5B39",
"R  c #885637",
"E  c #915236",
"W  c #915B39",
"Q  c #955539",
"!  c #914C2D",
"~  c #8D623B",
"^  c #87673C",
"/  c #91643C",
"(  c #916B3E",
")  c #916635",
"_  c #93783E",
"`  c #946D29",
"'  c #A3593D",
"]  c #90354E",
"[  c #956C41",
"{  c #8B7B44",
"}  c #877943",
"|  c #937442",
" . c #937C45",
".. c #977548",
"X. c #926B50",
"o. c #864765",
"O. c #8A6F6B",
"+. c #8B5942",
"@. c #7C9453",
"#. c #71894F",
"$. c #97883B",
"%. c #9A963A",
"&. c #94892A",
"*. c #9EA93D",
"=. c #9EA42C",
"-. c #A0AE3E",
";. c #ACD52B",
":. c #8B8346",
">. c #8C8D4B",
",. c #878648",
"<. c #948247",
"1. c #948449",
"2. c #99844A",
"3. c #968B4B",
"4. c #998C4C",
"5. c #978D44",
"6. c #8D944D",
"7. c #96924E",
"8. c #98944E",
"9. c #999C4D",
"0. c #9B9844",
"q. c #938553",
"w. c #958A55",
"e. c #8A9952",
"r. c #969651",
"t. c #999651",
"y. c #959B52",
"u. c #999C52",
"i. c #969C5A",
"p. c #96975B",
"a. c #9EAD45",
"s. c #9BA34C",
"d. c #9CA846",
"f. c #9FB24C",
"g. c #9FB044",
"h. c #8BA95A",
"j. c #95A455",
"k. c #9AA455",
"l. c #9BAA56",
"z. c #9AA45A",
"x. c #96AB5A",
"c. c #9CAC59",
"v. c #95AA54",
"b. c #9DB35D",
"n. c #9EB95F",
"m. c #9DB356",
"M. c #A1B444",
"N. c #A0B54B",
"B. c #A2BB47",
"V. c #A1BB52",
"C. c #A0B55E",
"Z. c #A0BB5B",
"A. c #A0AC4B",
"S. c #918C66",
"D. c #979863",
"F. c #8C8B75",
"G. c #9AAD63",
"H. c #99A866",
"J. c #9CB462",
"K. c #9FBC61",
"L. c #9BB869",
"P. c #95A979",
"I. c #99B678",
"U. c #A1BD61",
"Y. c #A4C34C",
"T. c #A8CF4C",
"R. c #A2C254",
"E. c #A4C957",
"W. c #A8D255",
"Q. c #9FC164",
"!. c #9FC26C",
"~. c #9EC474",
"^. c #A1C364",
"/. c #A2C966",
"(. c #A0C469",
"). c #A3CC69",
"_. c #AACB68",
"`. c #A8D267",
"'. c #6E26A4",
"]. c #6835B0",
"[. c #5B08BC",
"{. c #7A4991",
"}. c #7B6997",
"|. c #7F7B9A",
" X c #7E678F",
".X c #6F56AB",
"XX c #735AA7",
"oX c #6648B6",
"OX c #6857B9",
"+X c #6F4EAB",
"@X c #746DAA",
"#X c #7465A9",
"$X c #7573AB",
"%X c #767BAD",
"&X c #6C66B5",
"*X c #7479B0",
"=X c #706DB4",
"-X c #2A00DD",
";X c #3D00D6",
":X c #3600DA",
">X c #3C34DA",
",X c #4400D3",
"<X c #4608D3",
"1X c #4313D5",
"2X c #471AD3",
"3X c #4E17CE",
"4X c #4E28CE",
"5X c #5629C7",
"6X c #4E35CE",
"7X c #563AC9",
"8X c #4828D3",
"9X c #4A34D2",
"0X c #4839D4",
"qX c #5648CA",
"wX c #564DCB",
"eX c #6265C3",
"rX c #826888",
"tX c #847A8B",
"yX c #817B96",
"uX c #806F91",
"iX c #805886",
"pX c #7A83AA",
"aX c #7E93AB",
"sX c #7889B1",
"dX c #6F80B7",
"fX c #7A919E",
"gX c #888788",
"hX c #8B9789",
"jX c #82899A",
"kX c #869C9D",
"lX c #869698",
"zX c #90A88B",
"xX c #94B286",
"cX c #8AA396",
"vX c #8EA18C",
"bX c #849AA2",
"nX c #808CA1",
/* pixels */
"                                                                                                                                            ",
"                                                                                                                                            ",
"                                                                                                                                            ",
"                                                                                                                                            ",
"                                                                                                                                            ",
"                                                                                                                                            ",
"                                                                                                                      2 3 r r 3             ",
"                                                                                                  >.y.e.,.s = = d { ,.^ p 4 i i r           ",
"                                                                              r < < < e < = s j.^.U.y.7.K.b.y.6.j.y.3.| | ~ M H y           ",
"                                                            < < 3 3 r t t 3 2 4 i i p p H H 7.b.U.K.n.b.C.U.b.l.u.3.| I ( ~ m H y           ",
"                                          r 3 3 3 r y i t t r i t p K K L R R L G J J J J I k.U.U.c.k.c.b.K.^.K.u. . .<.t.<.L H r           ",
"                        r r t 3 3 r r r i 4 i p H K K J L L L J L J Y L N E <...W J E I I / k.^./.l.3.4.n.K.Q.K.k.<. .l.b.c.{ H ,           ",
"    t 3 r r r 3 4 r 4 t H K K H K ~ R R T K K L L J L L L I E E E I I Q N T 8.u.<.T  ./ W 7.C.U.U.c.c.b.b.b.c.c.c.3.| 3.z.b.c.K ,           ",
"  i J t H H H H ^ ^ H K K J L  .u.t.<. . .( E Z J Q |  .( Y J E E L U E <.8.4.z.c.k.J.u. . .U.U.b.K.^.).Q.n.c.l.K.n.8.N 3.b.b.~ ,           ",
"  i Y L M Y | 3.8.k.k.k.| N  .K.U.<.k.u.|  .r.u.8.C.Q.b.b. .n Z J Z U [ u.k.2.C.K.t.' ..4.Q z.U.J.l.c.^.`.c.8.k.^.n.c.y.b.k.[ H 5           ",
"  H I L J | k.b.b.k.r.4.u.l.r.z.b.l.^.C.u.z.K.^.l.l.l.c.).C.2.[ ..[ Q [ 8.c.C.C.u...' Q Q E c.U.n.n.n.K.C.U.b.c.`.h.#.h.>.{ ..J 4 e         ",
"  H L L ( 4.k.u.k.c.l.| 3.b.k.k.c.l.c.c.c.c.K.n. .( <.k.c.U.b.u.l.4.E 4.u.z.b.u.4.8.k.[ n  .u.c.b.c.l.c.c.L.h.@.@.#.z #.s K W L t <         ",
"  p L J | 3.4.7.k.b.c.3.8.b.n.Q.n.u.8.y.k.u.c.k.( | t.c.b.U.^.^.^.8.T { 7.k.b.7. .7.c. .L 2.7.8.u.8.k.k.7.@.#.z @ @ j h u H I L i 3         ",
"  r L Y (  .3.4.y.u.8.u.l.c.Q.Q.Q.b.u.r.u.7.3.3.u.k.c.K.^.^.^.U.U.c.8...<.u.b.u. .~ 3. .~  .u.u.3.u.b.b.7.@.l j X X X # a E Q L t <         ",
"  r H L T 2.k.{  .3.<.y.k.c.b.K.).).l.c.n.k. . .J.k.k.b.l.b.b.8.b.^.^.k.4.8.k.b.u. . ./ L _ b.n.k.c.c.l.b.J.c . $ @ $ : p I I L p 3         ",
"  < H J E | 3.3.u.v.k.b.c.y.b.^./.^.b.b./.`.k.<.u.k.u.8.3.c.n.u.u.b.K.^.b.k.3.K./.K.7.Y J 4.c.c.l.^.u.[  .x k : $ X % u K E L L H 3         ",
"  r i H T | 1.b.Q.b.j.2.| 2.b.b.J./.).).^.n.j.7.k.y.k.b.^.^.n.^.b.K.^.u.u.l.U.b.c.r.( n ( C.b.c.b.).c. .[ a 6 : # h k 7 Z U L L K r         ",
"  r r r 3 y d ,.6.>.} >.>.:.7.j.Z.).j.c.K.c.k.k.k.Y | b.u.l.b.^.b.K.^.K.l.u.u.k.z.y.W T 2.C.C.U.U.K.b.7.K Z R x w #.@.:...[ J L L i         ",
"    3 3 3 3 3 e s d >.,.6.j.:.c.^.J.3.w.G.U.J.z.c.( Y ..1.z.J.^.^.Q.(./.b.u.k.b.i.1.i.u.p.z.c.l.4.8.z.r.P b +.e.h.@.x :.c.l.3.[ L 4         ",
"    r r r r i 4 5 K { 6.k.l.<.m.E.f.d.d.m.f.s.s.l.2.| _ ) %.V.^./.E.E./.Z.J.^.m.0.%.g.m.f.*.k.4.[ 4.c.9.D D $.f.`.h.x v.Q.^.b.| L 5         ",
"    r H H p H p a 7 7 y.c.k.4.G.~.J.H.G.L.q.p.z.z.u.u.r.] X.G.n.(.L.!.(.^.^.U.c.H.H.z.L.L.D.u.t.2.C.U.D.] X.p.L.!.h.e.n.Q./.b.| J 4 r       ",
"    t H K p u u q & : ^ 5.s.8.gX%X$X+XXX@X.XbXI.s.V.x.O.'.].uXp.lXsXsXxXU.l.s.I.cX.XXXpXpXXXS.c.U.d.vXnX'.'.+X@XfX@._ >.U.^.k.W K H 3       ",
"    t K H w O o f @ q 7 m G ( +X:X;XqXqX8X-XeXcXY.M.w.{.8X:XOXp.+X-X>XcXL.Y.V.xXdX;X;X;X1XwXF.A.8.F iX7X1X2X1X4X=Xv D R <.y.7.[ L 4 r       ",
"    t H L u o 0 O + > +.J G 8.%X0X,XcXzXeX-XoXgXa.%.q.tX6X,X=XG.%X8X0XcX(.R.G.N.G.pX4X,X$Xb.8.| 2.U.M.S.&X2XwXjX9.%.q.<.( 7.b. .I B r       ",
"    t K L 6 . . . * > A ) 7.9.$X<X2XhXf.H.zXgXS.n.*.w.tX4X1X$XA.@X,X6XcX(.E.L.B.L.bX6X8XpXR.s.j.c.4.F ..sX0XwXfXl.d.i.7.c.l.4./ K M r       ",
"    t M M s c l z c } L ! _ <.#X2X<XXXgXhXP.G.C.J.d.x.cX6X,XOXtXOX2X9XlXi.%.p.V.!.cX9XqXpXk.3.| [ ..%.D.=X8XqXjX5.%.z.n./.Q.j. .T H 2       ",
"    3 4 { c.!.Q.h.e.u.1.) L 5.@X2X3X7XwXeXjXi.*.u.f.c.hX7X<X4X7X7X8X5X|.[ D  .Y.!.aX9X<X@X9.5. .<.x.*.p.#X8X6X X) ` i./.b.u.r.2.3.{ 2       ",
"      ^ k.^.^.n.b.j.r.k.5.W 8.@X<X2X=XaXaXhXp.$.u.l.z.S.}.oX,X,X,X5X{.o.A ! 7.d.L.bX0X,X.Xk.9.k.K.(.M.S.*X0X4X}.5.$.p.K.<.~ 2.u.j.:.2       ",
"      x k.u.:.#.e.e.4.z.8._  .XX8X<XcXW.;.a.c.b.K.l.l.c.F.oX4XeXqX].o.Z Q q.H.F ..bX0X,X+X8.s.b.^.K.B.H.dX0X6X|.V.a.z.k.1.3.j.b.7.^ 2       ",
"      } j.n.Q.v.J.b.t.b.n.l.t.#X,X,XbXL.a.f.f.k.p.N.J.hX6X,X=XH.*X8X2XuXz.N.G.%.w.|.8X4XXX$.k.n.U.(.W.~.pX9X6X|.8.%.i.j.y.j.b.n.e.d 2       ",
"      e.^._./.).Q.b.E.^.Z.l.C.nX,X,XzXL.}.oXpXP.0.d.p.rX4X,X=XK.pX8X2XrXz.A.1.B.K.gX9X,X#X=.V./.).(.W.L.dX9XwXjXv.d.x.Q.x.h.v.>.6.,.2       ",
"      r j.^.^.c.v.b.Q.b.c.k.5.XX1X<XpXyX5X-X&XvXE.g.z.hX9X:X&XH.@X;X4XjXz.%.3.4.hXsX4X,X].F.H.C.b.J.W.~.dX0X9X}.~ d.).Q.b.m.b.b.>.s 4 r     ",
"      9 y.^._.k.c.K.Q.b.k.u.k.%X<X3XqX7X4X0X[. Xg.M.H.gXwX1X.Xi.@X9X0X|.w.d.m.F.&X9X4X<X1XOXxXR.b.J.g.D..X;X6XfXs.f.L.K.n.n.c.u.[ B H t     ",
"      8 } k.U.^.b.u.k.c.z.u.k.F.uXyXnXbXlXpXgXS.9.N.p.O.jXlXhXc.hXbXlXO.i.m.E.I.lXbXbXcXbXbXP.Z.U.J.$...hX|.lXP.u.$.[ <.7.u.3.( E K K r     ",
"      2 4  .k.n.j.2.3.7.7.1.3.s.a.g.B.R.Y.N.f.k.7.<. ._ %.M.R.^.R.B.-.0.c.(.^.m.M.Y.E.R.Y.Y.9.c./.b.r.3.f.*.f.Z.3.R L | / ( ( K I Y K r     ",
"      d _ r.k.3.k.b.k.k. .Y 8.K.).U.^.^.U.K.k...Y b T k.3.u.n.).K.r...u.b.K.b.c.u.y.u.<.[ <.r.b./.U.n.c.u.t.l.^.J.r.7.b.4.<.3.| T J K r     ",
"        e.v.k.k.b.n.n.Q.n.k.8.b.).(.^.U.z.b.j.3.Q L L ( u.b.c.k.u. .Y Y r.k.7.K.Q.u.Z m V b  .K.).b.b.b.b.b.U.b.u.u.8.<.8.b.n.b._ n K t     ",
"      >.{ u.c.k.b.^.Q.k.u.k.u.u.8. .|  .7.b.Q.n.r.T n Z J L T W N N T | 3.8.y.2.[ / Y J J W c.^.Q.8.k.b.K.3.|  .Y 8.n.n.k. .~ 8.2.Q M r     ",
"      n.b.c.l.U.Q./.).c. .J | u.l.u.u.1.[ <.y.4.W m Y | / ( / m J ~ 3.b.2.T <.t. .n L J ..U.^.U.8.8.k.b.c.r.<.| <.k.n.^.<.T <.K.C. .M 4 r   ",
"        ^.U.c.^./.^.^.n.<.n T k./.Q.Q.n.j. .<. .J 3.l.b.3.3.2.L N ( u.K.k.4.c.u...S Q U ..l.8.t.c.u.C.U.c.n.k.| 8.b.K.^.k.k.b./.Z.8.N 4 r   ",
"        C.U.l.U./.Q.n.b.:., 1.b.).).Q./.Q.c.8.<.7.^.^.b.k.k.k.3.N [ b.c.b.^.Q.4.( ..Q J ' ..W 2.C.C.U.U.b.b.8. .y.n.n.k.y.c./.).c.( Z t e   ",
"        e.x.c.K.)./.b.j.{ p :.b.E.K.m.Q.!.n.u.7.b.^.n.k.K.b.l.l. . .k.u.K.^.b.1.<.8.Y m / 2. .3.k.^.b.u.k.3.( ~ 4.b.b.r.y.c.K.K.<.J J H r   ",
"        ,.y.b.K.Q.Q.n.7.>.2.Y 7.b.c.k.n./.2.( <.k.k.k.b.Q.b.c.l.k.3.( 8.c.b.l.u.k.k.Q m W 3.y.u.l.(.b.u.y.1.Q n ( 8.c.c.K.n.c.<.W K Y H r   ",
"        y ,.c./.U.n.^.8.4.k.k.n.Q.Q.^.n.8.Y W 7.n.8.u.b.l.u.4.8.7.7.7.c.b.n./.).K.8.L N L Q k.b.b.).).K.t. .T J N W  .4.u.u. .I J L L K i   ",
"      /.^.y.} ^.u. .t.<.u.^.b.k.k.n.K.^.b.( ~ u./.c.c.^.U.b.z.y.u.u.8.k.b.K.n.b.8.Y ! Y L J | 8.l.U.b.t. .I J E E I J Y R K N K L K H L i   ",
"      ^.n.b.c.b.b.b.b.k.b./.^.K.c.8.n.)./.r.L W c.3.7.k.<.t.c.b.| ( 7.| 7.c.b.y.| E E E Y Y L E W | ~ K L K H L K K L K H i t t r r 3 t r   ",
"        b.^.^.c.c.l.y.l.u.1.c.b.c.r.K.^.c._ m L 2.3.| / | k.l. .T Q / ~  .2._ T Y L K L L J H H M H C C i r i r t t r r r r r               ",
"        b.b.C.c.b.c.u.l.2.V | 2.3.<.8.4.| U J Y T  .4.7.3.3.| M K K H K R K 5 5 4 t t t t t t i t 3 t y e <                                 ",
"          b.U.b.C.U.k.3.^ K L L H a 7 C J L L L M T >.u.{ p , t t t t 3 2 2 r e e 3 < < <                                                   ",
"          n._.c.b.l.} 6 > w > : : % & u H H i i p 4 , = 8 3 r r r 3 3 r r r < 1                                                             ",
"          r R M 7.e.0 O X o o f o o % ; 3 r 3 3 3 <       L I J t 3 r r r < 1 ;                                                             ",
"          3 C t < ; $ + + g $ $ $ f %                     E Y J t r r r r 3 1 ;                                                             ",
"                    $ g g g g g g f @                     E ' E H t K K i i 3 ;                                                             ",
"                      g $ g g g @                           Y J r r t t i 3 1                                                               ",
"                                                                                                                                            ",
"                                                                                                                                            ",
"                                                                                                                                            ",
"                                                                                                                                            ",
"                                                                                                                                            ",
"                                                                                                                                            ",
"                                                                                                                                            ",
"                                                                                                                                            ",
"                                                                                                                                            ",
"                                                                                                                                            ",
"                                                                                                                                            "
};
