/* XPM */
static char *c6c18c8cf4e84319d699a4ddb02b5eb0UdDTZDowdxtms2yx[] = {
/* columns rows colors chars-per-pixel */
"70 70 25 1 ",
"  c None",
". c #200808",
"X c #281820",
"o c #552B15",
"O c #5E3E33",
"+ c #7C4D3C",
"@ c #6B5C40",
"# c #9D3F3F",
"$ c #AC5D1F",
"% c #805F58",
"& c #AC7676",
"* c #D0755D",
"= c #E09E2B",
"- c #928364",
"; c #A79778",
": c #F78E73",
"> c #FCCF56",
", c #FFE67D",
"< c #C5B38F",
"1 c #C5B595",
"2 c #DBCBAA",
"3 c #DBCBAB",
"4 c #9CF3D9",
"5 c #EAD7CA",
"6 c #F6F6C2",
/* pixels */
"                                                                      ",
"                                                                      ",
"                                                                      ",
"                                                                      ",
"                                                                      ",
"                                                                      ",
"                                                                      ",
"                                                                      ",
"                                                                      ",
"                                                                      ",
"                                                                      ",
"                                                                      ",
"                              .. ..                                   ",
"                              ....6.                                  ",
"                              ....,6.                                 ",
"                              ...o=6=.                                ",
"                             ....$o,,$.                               ",
"                            ...$.$o=,$.                               ",
"                           ..oo$$=$=,$$.                              ",
"                           .$>,>=====>$.                              ",
"                          ..$$.o$====>=.                              ",
"                        .....4.>=====>=$.                             ",
"                      ...o$o=,======>>==.                             ",
"                     ....>$$$=>,,==>,>>=.                             ",
"                     ...>==>>=>>>>>,$>>=$.                            ",
"                      .>>==$oo$$=>>>$>>=$.                            ",
"                       .$...$$$====$=>>=$..                           ",
"                        ........$=$=>>=== @XX                         ",
"                             X.o..====== 3;;@X                        ",
"                            X@@@ooo====;33551@X                       ",
"                           X@3---;;;;;3333111;;X                      ",
"                           X333;;;;;;<<333--@@:*X                     ",
"                          X;3<<<33<<<<<<33-@@*%##X                    ",
"                          X;3;<;<33<3<<333;@@@X%#X                    ",
"                          X;XXXXX33333<<&3;XXX@1@%X                   ",
"                          X@&&-&@X3355<;+@X*-;-111X                   ",
"                          X;+-@@@X55<;3+&X*13-133-X                   ",
"                          X--@---X;;--OO+X11533&XX                    ",
"                          XX@;;;X33<<%+%+X@111&X                      ",
"                          X@--&&X;<<<;%%@XX+&&%X                      ",
"                           XXXXX;&&<;;;;@XXXXXX                       ",
"                             X@;<&<;;;;;@X                            ",
"                             X-;;;;;;;;;-@X                           ",
"                             X&;-@@-;;;;-@X                           ",
"                             X&;--X@&11;;;X                           ",
"                             X-;;-@X*131;;X                           ",
"                              @;;&@X&133;;X                           ",
"                              X&;*&XX*331;X                           ",
"                              X*&-*X X&11;-X                          ",
"                              X&;-@X X&;;;;X                          ",
"                            XX-;3;@X  X@;&@@X                         ",
"                           X;;;31-&X  X--;&@X                         ",
"                           X*&11*&@X X@;31;;@X                        ",
"                           XXXXXXXXXX-13331-@X                        ",
"                                    X@-13;-@@X                        ",
"                                     XXXXXXXX                         ",
"                                                                      ",
"                                                                      ",
"                                                                      ",
"                                                                      ",
"                                                                      ",
"                                                                      ",
"                                                                      ",
"                                                                      ",
"                                                                      ",
"                                                                      ",
"                                                                      ",
"                                                                      ",
"                                                                      ",
"                                                                      "
};
