/* XPM */
static char *_166f76cf510440fc251d7aba95c3309sD3IVKYBKX38b0VZ[] = {
/* columns rows colors chars-per-pixel */
"70 70 24 1 ",
"  c None",
". c #200808",
"X c #281820",
"o c #552B15",
"O c #5E3E33",
"+ c #7C4D3C",
"@ c #6B5C40",
"# c #9F2828",
"$ c #9D3F3F",
"% c #AC5D1F",
"& c #805F58",
"* c #AC7676",
"= c #D0755D",
"- c #E09E2B",
"; c #928364",
": c #A79778",
"> c #FCCF56",
", c #FFE67D",
"< c #C5B38F",
"1 c #C5B595",
"2 c #DBCBAB",
"3 c #9CF3D9",
"4 c #EAD7CA",
"5 c #F6F6C2",
/* pixels */
"                                                                      ",
"                                                                      ",
"                                                                      ",
"                                                                      ",
"                                                                      ",
"                                                                      ",
"                                                                      ",
"                                                                      ",
"                                                                      ",
"                                                                      ",
"                                 .. ..                                ",
"                                .5....                                ",
"                               .5,....                                ",
"                              .-5-o...                                ",
"                             .%,,o%....                               ",
"                             .%,-o%.%...                              ",
"                            .%%,-%-%%oo..                             ",
"                            .%>----->,>%.                             ",
"                            .->----%o.%%..                            ",
"                           .%->----->.3.....                          ",
"                           .-->>------,-o%o...                        ",
"                           .->>,>--,,>-%%%>....                       ",
"                          .%->>%,>>>>>->>-->...                       ",
"                          .%->>%>>>-%%oo%-->>.                        ",
"                         ..%->>-%----%%%...%.                         ",
"                       XX@ --->>-%-%........                          ",
"                      X**:2 ------..o..                               ",
"                     X*&&*22:----oooo@@X                              ",
"                    X;;*&12222:::::;;;<@X                             ",
"                   X;@@;1222<&&::::::22<X                             ",
"                  X;&*+:222<&#*<<<<<2222:X                            ",
"                  X&+X@@@22<:*#<<<<:2222:X                            ",
"                 XO*+:XXX:2<*$$::::XXXXX:X                            ",
"                 X:**::;@X@2<<<$::X@*;::@X                            ",
"                 X;;:&*&@=X::::::<X&@@;*:X                            ",
"                  XX;O&;:@X;:*;;::X&;;@;;X                            ",
"                    X@*;:@X@*+*222<X:::@XX                            ",
"                    X@@=*XX@+$+*<4<X&&*;&X                            ",
"                     XXXXXX@:**:*<2:XXXXX                             ",
"                          X@::*:::<<:@X                               ",
"                         X@;=::::::::;X                               ",
"                         X@;=@::;@@;::X                               ",
"                         X:;*;2;@X*;::X                               ",
"                         X@@;22@X***:;X                               ",
"                         X;12*;@X=*=:@                                ",
"                         X:1;=@XX*=:;X                                ",
"                        X;:=2;X X=*:@X                                ",
"                        X==*:@X X::*@X                                ",
"                       X=**:@X  X;:2;;XX                              ",
"                       X*=:*;X  X@;22:::X                             ",
"                      X@;122:@X X;@@;:11X                             ",
"                      X=;11222@XXXXXXXXXX                             ",
"                      X@*;111:=X                                      ",
"                       XXXXXXXX                                       ",
"                                                                      ",
"                                                                      ",
"                                                                      ",
"                                                                      ",
"                                                                      ",
"                                                                      ",
"                                                                      ",
"                                                                      ",
"                                                                      ",
"                                                                      ",
"                                                                      ",
"                                                                      ",
"                                                                      ",
"                                                                      ",
"                                                                      ",
"                                                                      "
};
