/* XPM */
static char *_46f338493e04812d2b72caf9edd245dQBDLrg3IIGOSDAs3[] = {
/* columns rows colors chars-per-pixel */
"66 70 22 1 ",
"  c None",
". c #200808",
"X c #281820",
"o c #552B15",
"O c #5E3E33",
"+ c #7C4D3C",
"@ c #6B5C40",
"# c #9F2828",
"$ c #9D3F3F",
"% c #AC5D1F",
"& c #805F58",
"* c #AC7676",
"= c #D0755D",
"- c #E09E2B",
"; c #928364",
": c #A79778",
"> c #F78E73",
", c #FCCF56",
"< c #C5B38F",
"1 c #C5B595",
"2 c #DBCBAB",
"3 c #EAD7CA",
/* pixels */
"                                                                  ",
"                                                                  ",
"                                                                  ",
"                                                                  ",
"                                                                  ",
"                                                                  ",
"                                                                  ",
"                                                                  ",
"                                                                  ",
"                                                                  ",
"                                                                  ",
"                                                                  ",
"                                                                  ",
"                                                                  ",
"                        ....          ....                        ",
"                        .---..      ..---.                        ",
"                        .-,,-..    ..-,,-.                        ",
"                        .-,,,-%oooo%-,,,-.                        ",
"                        .-,,,,------,,,,-.                        ",
"                        ..,,,-,----,-,,,..                        ",
"                         ..,,,,,--,,,,,..                         ",
"                         ..o-,,,,,,,,-%..                         ",
"                        .oo-,,,,,,,,,,-oo.                        ",
"                        .-%-,,,,,,,,,,-%-.                        ",
"                        .o--,,,,,,,,,--%o.                        ",
"                         .---,,,,,,,,-%%.                         ",
"                         ..%--,,,,,,--%..                         ",
"                         X..%--,,,,--%..X                         ",
"                          Xoo--------ooX                          ",
"                          X;:::::::::@X                           ",
"                          X::<;;<<22<:X                           ",
"                          X*<=#*<22<<2;XXX                        ",
"                          X&:*$&<2*>32:&X@X                       ",
"                          X***&<222*33&&X:@X                      ",
"                          X**:::<2222=1&&X:X                      ",
"                          X:*::;:<<<*11@@X;X                      ",
"                          X@;;:;:::::1;;@@;X                      ",
"                          X;:::::*@@:::+&@;X                      ",
"                          X;@:::*$*X@;;;+&:X                      ",
"                          X;;22:*#$*X@&;;*:X                      ",
"                          X@:;2<:**+OX@*:*;X                      ",
"                          X@;@<<:::***X@;:;X                      ",
"                           X:;@:::::*;XXXXX                       ",
"                            X@;;;;:::;X                           ",
"                            X;@@;::2:;X                           ",
"                            X&&X;:22:;X                           ",
"                           X&&:X;:22:;X                           ",
"                           X;2*X;22::@X                           ",
"                           X:23X*22::X                            ",
"                           X:23X*=2:;X                            ",
"                            X&2X&=*;@X                            ",
"                             XXX*&&:;X                            ",
"                               X:*2:;@X                           ",
"                               X:222:;@XX                         ",
"                               X;232:;;;@X                        ",
"                               X*232::**;X                        ",
"                               X@*::*&&XX                         ",
"                                XXXXXXX                           ",
"                                                                  ",
"                                                                  ",
"                                                                  ",
"                                                                  ",
"                                                                  ",
"                                                                  ",
"                                                                  ",
"                                                                  ",
"                                                                  ",
"                                                                  ",
"                                                                  ",
"                                                                  "
};
